<svg xmlns="http://www.w3.org/2000/svg" width="663" height="570" fill="none" viewBox="0 0 663 570">
  <path fill="#FF7346" d="M340.367 308.859V293.74l-21.833-12.608v-15.119l-21.833-12.619v-15.107L274.88 225.68l-94.341 51.458 24.504 14.078v15.119l21.833 12.595v15.131l21.833 12.595v15.132l95.64 138.215c94.708-15.989 167.008-64.213 197.515-126.539a248.542 248.542 0 0 0 9.422-21.772l-210.919-42.833Z" opacity=".2"/>
  <path fill="#FF7346" d="M205.891 14.111C142.057 50.867 90.305 149.374 90.305 234.183c0 50.392 18.28 84.612 46.557 96.374l11.677-6.738 114.801-66.272 11.971-6.91c28.069-44.169 46.214-99.242 46.214-149.475-.049-84.784-51.789-123.77-115.634-87.05Z" opacity=".15"/>
  <path fill="#FF7346" d="M205.895 38.64c-53.639 30.875-97.122 113.65-97.122 184.92 0 71.27 43.483 104.032 97.122 73.182 53.64-30.851 97.135-113.663 97.135-184.933s-43.483-104.032-97.135-73.17Z" opacity=".15"/>
  <path fill="#FF7346" d="M205.887 55.927c-46.289 26.734-83.817 98.433-83.817 160.147 0 61.714 37.528 90.102 83.817 63.38 46.288-26.722 83.816-98.433 83.816-160.159 0-61.726-37.516-90.114-83.816-63.368Z" opacity=".15"/>
  <path fill="#FF7346" d="M156.467 219.002c0-53.468 32.517-115.586 72.618-138.754 17.68-10.194 33.865-11.137 46.447-4.423l-16.307-9.434c-12.742-7.352-29.405-6.739-47.587 3.773-40.125 23.169-72.63 85.287-72.63 138.755 0 29.27 9.74 49.878 25.141 58.748 2.634 1.507 12.424 7.18 16.418 9.483-14.837-9.201-24.1-29.539-24.1-58.148Z"/>
  <path fill="#fff" d="M156.467 219.002c0-53.468 32.517-115.586 72.618-138.754 17.68-10.194 33.865-11.137 46.447-4.423l-16.307-9.434c-12.742-7.352-29.405-6.739-47.587 3.773-40.125 23.169-72.63 85.287-72.63 138.755 0 29.27 9.74 49.878 25.141 58.748 2.634 1.507 12.424 7.18 16.418 9.483-14.837-9.201-24.1-29.539-24.1-58.148Z" opacity=".3"/>
  <path fill="#FF7346" d="M257.619 91.458c6.334 8.454 9.728 21.907 8.968 39.403-1.825 42.882-27.91 93.9-58.246 113.858-9.214 6.065-17.778 8.577-25.153 7.903 9.213 12.252 24.651 14.004 42.612 2.181 30.348-19.959 56.433-70.94 58.259-113.871 1.249-29.87-9.557-47.967-26.44-49.474Z"/>
  <path fill="#000" d="M257.619 91.458c6.334 8.454 9.728 21.907 8.968 39.403-1.825 42.882-27.91 93.9-58.246 113.858-9.214 6.065-17.778 8.577-25.153 7.903 9.213 12.252 24.651 14.004 42.612 2.181 30.348-19.959 56.433-70.94 58.259-113.871 1.249-29.87-9.557-47.967-26.44-49.474Z" opacity=".15"/>
  <path fill="#FF7346" d="m174.969 104.593 17.459 10.083 1.397-1.875-17.46-10.108c-.477.65-.931 1.226-1.396 1.9Zm-8.019 58.393-17.521-10.059c-.245.674-.477 1.372-.71 2.058l17.459 10.084c.245-.711.466-1.409.772-2.083Zm79.644-101.043 17.471 10.12c.711.123 1.421.245 2.12.392l-17.472-10.083a20.95 20.95 0 0 0-2.119-.429Zm-87.662 130.656c.135-.76.282-1.531.429-2.291l-17.459-10.084c-.159.76-.306 1.52-.441 2.292l17.471 10.083ZM192.133 84.99l17.459 10.083c.6-.576 1.225-1.152 1.813-1.703l-17.496-10.084c-.575.552-1.225 1.127-1.776 1.703Zm-33.117 158.014c-.159-.674-.306-1.36-.453-2.046l-.135-.306-17.373-10.035c.159.784.318 1.556.502 2.316l17.459 10.071Zm72.343-180.607c-.735.147-1.494.343-2.242.526l17.472 10.084a39.806 39.806 0 0 1 2.266-.515l-17.496-10.096Zm-1.185 17.263-17.46-10.047c-.367.208-.722.38-1.078.588l-1.066.65 17.459 10.083 1.054-.65 1.091-.624Zm-70.01 48.763 17.459 10.083 1.029-1.911-17.459-10.084c-.367.613-.698 1.25-1.029 1.912Zm6.266 133.817a79.361 79.361 0 0 1-1.139-2.046l-17.447-10.072c.367.699.759 1.373 1.151 2.047l17.435 10.071Zm-27.426-53.125 17.46 10.096v-2.488l-17.472-10.083v2.279l.012.196Z"/>
  <path fill="#FF7346" d="M229.087 80.248c-40.101 23.168-72.618 85.286-72.618 138.754 0 53.468 32.517 78.058 72.618 54.902 40.101-23.157 72.642-85.275 72.642-138.755 0-53.48-32.529-78.058-72.642-54.901Zm54.938 60.684c-1.826 42.882-27.91 93.9-58.259 113.858-30.348 19.959-53.443 1.348-51.618-41.571 1.826-42.919 27.935-93.9 58.259-113.858 30.324-19.959 53.456-1.348 51.618 41.571Z"/>
  <path fill="#000" d="M214.229 115.497c.589-.649 1.164-1.311 1.765-1.948l-4.595-20.18a59.753 59.753 0 0 0-1.813 1.692l4.643 20.436Zm13.787-34.612v21.637c.71-.551 1.421-1.09 2.144-1.605v-21.27l-1.078.6-1.066.638Zm14.765 13.036a38.596 38.596 0 0 1 2.34-.833l3.676-20.608c-.747.147-1.507.319-2.267.502l-3.749 20.94Zm-59.206 74.456.772-2.034-17.398-3.369c-.245.686-.49 1.372-.722 2.058l17.348 3.345Zm8.258-19.126.98-1.96-14.163-10.708-1.017 1.923 14.2 10.745Zm106.919-39.782-15.4 14.445c.122.858.232 1.728.33 2.634l15.695-14.702c-.233-.784-.416-1.593-.625-2.377Zm-124.078 96.754-18.182 10.488v2.5l17.962-10.366c.036-.87.134-1.752.22-2.622Zm2.937-17.765c.183-.772.38-1.544.563-2.328l-18.831 4.154c-.147.759-.294 1.531-.429 2.291l18.697-4.117Zm79.647-97.012c.747.061 1.47.147 2.181.27l6.763-19.322a60.338 60.338 0 0 0-2.144-.404l-6.8 19.456Zm21.359 16.075c.343.723.674 1.482.993 2.254l12.619-16.993a25.716 25.716 0 0 0-1.225-1.998l-12.387 16.737Zm-8.914-11.382c.576.44 1.14.906 1.691 1.409l9.508-18.207a35.765 35.765 0 0 0-1.753-1.298l-9.446 18.096Zm-67.622 35.273 1.323-1.997-9.593-16.626-1.397 1.887 9.667 16.736Zm42.249 106.826c-.576.674-1.225 1.323-1.752 1.96l4.595 20.241a61.63 61.63 0 0 0 1.813-1.728l-4.656-20.473Zm22.767-34.808c-.318.662-.649 1.311-.98 1.96l14.2 10.733.993-1.948-14.213-10.745Zm-10.352 18.354-1.323 2.009 9.618 16.663c.465-.625.943-1.225 1.396-1.875l-9.691-16.797Zm18.545-37.945c-.245.686-.478 1.372-.735 2.046l17.398 3.357c.245-.686.477-1.372.71-2.058l-17.373-3.345Zm5.744-20.326c-.16.772-.319 1.543-.503 2.303l18.746-4.104c.135-.772.257-1.532.392-2.291l-18.635 4.092Zm20.695-30.618-17.839 10.23c0 .858-.11 1.716-.171 2.586l18.01-10.353v-2.463ZM230.16 273.254v-21.612a84.726 84.726 0 0 1-2.144 1.605v21.269l1.066-.612c.355-.208.722-.441 1.078-.65Zm-51.178-27.898a46.49 46.49 0 0 1-.955-2.327l-12.73 17.152c.367.699.76 1.385 1.152 2.047l12.533-16.872Zm8.729 12.069a26.497 26.497 0 0 1-1.654-1.483l-9.557 18.28c.564.466 1.139.907 1.728 1.336l9.483-18.133Zm27.277 2.989c-.784.294-1.556.552-2.328.797l-3.676 20.546a49.79 49.79 0 0 0 2.279-.49l3.725-20.853Zm-14.767 2.242a24.374 24.374 0 0 1-2.156-.318l-6.69 19.236c.711.171 1.421.306 2.132.428l6.714-19.346Zm-25.583-34.244a86.893 86.893 0 0 1-.257-2.708l-15.928 14.862c.172.821.343 1.629.527 2.45l15.658-14.604Z" opacity=".15"/>
  <path fill="#263238" d="m248.691 361.8-82.996-47.918v-45.369l17.472 10.083 21.857 12.632v15.119l21.834 12.595v15.131l21.833 12.596V361.8Z"/>
  <path fill="#455A64" d="m183.188 278.621 91.694-52.941 21.821 12.607-91.682 52.941-21.833-12.607Z"/>
  <path fill="#37474F" d="M205.023 291.228v15.119l91.683-52.941v-15.119l-91.683 52.941Z"/>
  <path fill="#455A64" d="m205.023 306.347 91.683-52.941 21.833 12.607-91.682 52.929-21.834-12.595Z"/>
  <path fill="#37474F" d="M226.852 318.942v15.131l91.682-52.941v-15.119l-91.682 52.929Z"/>
  <path fill="#455A64" d="m226.852 334.074 91.682-52.942 21.833 12.608-91.682 52.929-21.833-12.595Z"/>
  <path fill="#37474F" d="M248.688 346.669V361.8l91.682-52.941V293.74l-91.682 52.929Z"/>
  <path fill="#FF7346" d="M274.941 135.774c-1.825 42.882-27.922 93.9-58.258 113.87-11.272 7.413-21.539 9.508-29.92 6.996-8.576-7.829-13.477-22.825-12.619-43.396 1.837-42.883 27.934-93.9 58.258-113.859 11.284-7.425 21.576-9.507 29.944-6.983 8.626 7.841 13.477 22.788 12.595 43.372Z"/>
  <path fill="#fff" d="M274.941 135.774c-1.825 42.882-27.922 93.9-58.258 113.87-11.272 7.413-21.539 9.508-29.92 6.996-8.576-7.829-13.477-22.825-12.619-43.396 1.837-42.883 27.934-93.9 58.258-113.859 11.284-7.425 21.576-9.507 29.944-6.983 8.626 7.841 13.477 22.788 12.595 43.372Z" opacity=".9"/>
  <path fill="#FF7346" d="M216.545 227.664a39.848 39.848 0 0 0-24.7 12.559 46.416 46.416 0 0 0-8.429 12.73 29.051 29.051 0 0 0 3.345 3.675c1.803.527 3.661.848 5.537.956.491-1.225.858-2.512 1.287-3.749a31.118 31.118 0 0 1 27.861-20.351c4.203-.11 8.368.649 12.546.98a135.137 135.137 0 0 0 4.901-5.685c-7.4-.379-15.033-1.85-22.348-1.115Zm-1.813-62.742c8.576 1.115 17.937 1.592 25.435-2.794 8.491-4.974 12.522-14.837 16.614-23.769 3.81-8.294 9.018-17.055 17.337-20.265-1.728-11.602-5.869-20.338-11.787-25.729a26.364 26.364 0 0 0-12.411-.527 41.9 41.9 0 0 0-8.846 16.467c-1.96 6.861-2.647 14.151-5.795 20.534a29.408 29.408 0 0 1-15.303 14.127c-5.244 2.083-10.941 2.585-16.516 3.443a84.849 84.849 0 0 0-11.505 2.524 178.108 178.108 0 0 0-7.767 17.777 30.504 30.504 0 0 1 4.68-1.923c8.319-2.561 17.288-.968 25.864.135Zm8.772-42.883c2.745-4.741 3.676-10.267 5.183-15.547.539-1.973 1.225-3.897 1.862-5.82a84.598 84.598 0 0 0-5.832 4.509c-2.769 6.726-5.464 13.477-10.573 18.549a26.128 26.128 0 0 1-9.128 5.808c-.645.215-1.31.367-1.985.453a175.818 175.818 0 0 0-3.675 5.636 46.694 46.694 0 0 0 8.184-1.397 28.427 28.427 0 0 0 15.977-12.227l-.013.036Zm51.459 7.437a24.063 24.063 0 0 0-6.42 4.84c-4.558 4.999-7.008 11.48-9.802 17.655-3.896 8.797-8.98 17.753-17.447 22.311-5.636 3.026-12.252 3.786-18.586 3.958-12.068.33-24.32-1.226-36.119 1.36a41.838 41.838 0 0 0-7.425 2.364 141.258 141.258 0 0 0-2.144 8.76 40.251 40.251 0 0 1 8.662-3.369c17.435-4.411 36.756 5.269 53.456-1.225 12.252-4.791 19.714-16.957 25.729-28.645 2.451-4.766 5.085-9.802 9.312-12.963.327-2.916.555-5.808.686-8.675a71.7 71.7 0 0 0 .147-6.407l-.049.036Zm-43.495 71.418c-9.434.343-18.856-.539-28.29-.674a46.339 46.339 0 0 0-14.359 1.47 41.218 41.218 0 0 0-11.419 5.991 86.805 86.805 0 0 0-3.112 2.34 149.353 149.353 0 0 0-.196 3.235c-.527 12.436 1.054 22.813 4.276 30.826a33.504 33.504 0 0 0 5.513-6.126c6.482-8.76 12.73-18.451 22.556-23.144 10.549-5.036 22.985-3.235 34.453-5.538a47.798 47.798 0 0 0 14.274-5.403 185.859 185.859 0 0 0 5.133-10.39c-.49.294-.992.576-1.494.858-8.295 4.545-17.864 6.175-27.286 6.518l-.049.037Z" opacity=".1"/>
  <path fill="#FF7346" d="M331.303 117.095c0 4.166-.784 7.866-5.881 8.76 5.219.221 5.587 3.676 5.881 8.503.171-4.791.625-8.282 5.354-8.503-4.876-.809-5.354-4.594-5.354-8.76ZM212.381 338.869c0 4.166-.784 7.866-5.881 8.76 5.219.221 5.587 3.676 5.881 8.503.172-4.802.625-8.282 5.354-8.503-4.901-.82-5.354-4.594-5.354-8.76Zm-38.308-128.352c0 1.825-.343 3.43-2.573 3.822 2.279.098 2.45 1.63 2.573 3.676.073-2.095.269-3.676 2.34-3.676-2.144-.355-2.34-1.997-2.34-3.822Z"/>
  <path fill="#E0E0E0" d="M164.053 217.684c0 4.154-.797 7.854-5.881 8.748 5.219.221 5.587 3.676 5.881 8.515.159-4.802.612-8.282 5.354-8.515-4.901-.747-5.354-4.594-5.354-8.748Zm-4.781-20.877c0 2.144-.404 4.031-3.014 4.496 2.671.111 2.867 1.899 3.014 4.362.086-2.45.318-4.251 2.757-4.362-2.524-.416-2.757-2.352-2.757-4.496Zm157.884-92.234c0 2.451-.062 4.779-3.578 5.33 3.676 0 3.431 2.291 3.614 5.232.098-2.941.356-5.048 3.26-5.183-3.002-.502-2.916-1.887-3.296-5.379Zm30.552 113.393c-.257 4.594-.625 6.579-4.778 7.131 4.227.232 4.582 3.038 4.827 6.947.135-3.909.478-6.751 4.337-6.947-3.969-.637-4.067-2.475-4.386-7.131ZM195.5 338.906c-.147 2.683-.355 3.835-2.781 4.166 2.45.134 2.671 1.752 2.818 4.031.073-2.279.269-3.933 2.524-4.031-2.279-.392-2.377-1.446-2.561-4.166Zm143.536-226.075c0 1.483 0 2.904-2.169 3.235 2.255 0 2.083 1.384 2.193 3.161.062-1.777.209-3.051 1.961-3.137-1.814-.306-1.765-1.139-1.985-3.259Zm4.617 118.49c0 1.47 0 2.891-2.169 3.222 2.243 0 2.071 1.397 2.181 3.173.061-1.776.221-3.063 1.973-3.136-1.814-.319-1.764-1.152-1.985-3.259ZM206.809 333.062c0 1.47 0 2.891-2.168 3.222 2.254 0 2.082 1.385 2.193 3.161.061-1.776.22-3.051 1.972-3.136-1.788-.294-1.739-1.14-1.997-3.247Z"/>
  <path fill="#263238" d="m514.978 300.807 38.582-22.274 58.246 33.619 27.947-16.136-58.234-33.619 18.917-10.929-30.63-17.704-18.917 10.929-33.767-19.469-27.959 16.148 33.73 19.518-71.932 41.461 22.507 12.987 181.551 48.739 3.529-2.034a245.888 245.888 0 0 0 4.3-21.307l-147.87-39.929Z"/>
  <path fill="#FF7346" d="m518.604 129.903-1.446.833V83.664L499.687 73.58l-21.613 12.473 17.827-67.019-17.459-10.083L448.387 26.3 399.82 207.9v26.035l17.459 10.084 54.51-31.488v18.758l17.471 10.083 27.861-16.148v-38.913l18.905-10.916v-35.409l-17.422-10.083Zm-46.815 27.065-14.788 8.576 14.788-55.649v47.073Z"/>
  <path fill="#000" d="m518.604 129.903-1.446.833V83.664L499.687 73.58l-21.613 12.473 17.827-67.019-17.459-10.083L448.387 26.3 399.82 207.9v26.035l17.459 10.084 54.51-31.488v18.758l17.471 10.083 27.861-16.148v-38.913l18.905-10.916v-35.409l-17.422-10.083Zm-46.815 27.065-14.788 8.576 14.788-55.649v47.073Z" opacity=".3"/>
  <path fill="#FF7346" d="M517.148 150.903v-67.24L489.201 99.8v67.251l-38.594 22.274 45.296-170.29-30.055 17.348-48.567 181.6v25.987l71.92-41.51v38.912l27.947-16.148v-38.913l18.917-10.916v-35.409l-18.917 10.917Z"/>
  <path fill="#fff" d="M517.148 150.903v-67.24L489.201 99.8v67.251l-38.594 22.274 45.296-170.29-30.055 17.348-48.567 181.6v25.987l71.92-41.51v38.912l27.947-16.148v-38.913l18.917-10.916v-35.409l-18.917 10.917Z" opacity=".3"/>
  <path fill="#FF7346" d="M495.904 19.034 478.445 8.951 448.391 26.3l17.459 10.083 30.054-17.349Z"/>
  <path fill="#fff" d="M495.904 19.034 478.445 8.951 448.391 26.3l17.459 10.083 30.054-17.349Z" opacity=".5"/>
  <path fill="#FF7346" d="m499.694 73.58 17.459 10.084L489.206 99.8l-12.815-7.4 1.69-6.347 21.613-12.473Z"/>
  <path fill="#fff" d="m499.694 73.58 17.459 10.084L489.206 99.8l-12.815-7.4 1.69-6.347 21.613-12.473Z" opacity=".5"/>
  <path fill="#FF7346" d="m489.203 167.051-17.471-10.083-14.788 8.539-6.335 23.818 38.594-22.274Z"/>
  <path fill="#fff" d="m489.203 167.051-17.471-10.083-14.788 8.539-6.335 23.818 38.594-22.274Z" opacity=".5"/>
  <path fill="#FF7346" d="m536.058 139.987-17.459-10.084-1.458.833v20.167l18.917-10.916Z"/>
  <path fill="#fff" d="m517.141 150.903 18.917-10.916-17.459-10.084-1.458.833v20.167Z" opacity=".5"/>
  <path fill="#FF7346" d="M417.279 217.983 399.82 207.9l48.567-181.6 17.46 10.083-48.568 181.6Z"/>
  <path fill="#000" d="M417.279 217.983 399.82 207.9l48.567-181.6 17.46 10.083-48.568 181.6Z" opacity=".15"/>
  <path fill="#263238" d="m200.74 457.098-30.667-17.704-18.905 10.916-33.706-19.456-27.959 16.136 33.706 19.456-71.92 41.523 22.507 12.999 181.563 48.739 30.055-17.349-170.132-45.921 38.594-22.286 58.234 33.632 27.959-16.149-58.247-33.619 18.918-10.917Z"/>
  <path fill="#FF7346" d="m118.901 335.521-1.446.845v-47.121l-17.471-10.084-21.613 12.534 17.827-67.019-17.46-10.083-30.054 17.324L.117 413.53v25.986L17.625 449.6l54.46-31.439v18.746l17.46 10.083 27.959-16.136v-38.925l18.905-10.916v-35.409l-17.508-10.083Zm-46.864 27.065-14.789 8.576 14.789-55.6v47.024Z"/>
  <path fill="#000" d="m118.901 335.521-1.446.845v-47.121l-17.471-10.084-21.613 12.534 17.827-67.019-17.46-10.083-30.054 17.324L.117 413.53v25.986L17.625 449.6l54.46-31.439v18.746l17.46 10.083 27.959-16.136v-38.925l18.905-10.916v-35.409l-17.508-10.083Zm-46.864 27.065-14.789 8.576 14.789-55.6v47.024Z" opacity=".3"/>
  <path fill="#FF7346" d="M117.457 356.533v-67.251l-27.96 16.136v67.251l-38.593 22.274 45.308-170.291-30.055 17.349-48.579 181.6V449.6l71.92-41.523v38.913l27.959-16.136v-38.925l18.905-10.916v-35.409l-18.905 10.929Z"/>
  <path fill="#fff" d="M117.457 356.533v-67.251l-27.96 16.136v67.251l-38.593 22.274 45.308-170.291-30.055 17.349-48.579 181.6V449.6l71.92-41.523v38.913l27.959-16.136v-38.925l18.905-10.916v-35.409l-18.905 10.929Z" opacity=".3"/>
  <path fill="#FF7346" d="m96.213 224.652-17.471-10.083-30.055 17.349 17.472 10.083 30.054-17.349Z"/>
  <path fill="#fff" d="m96.213 224.652-17.471-10.083-30.055 17.349 17.472 10.083 30.054-17.349Z" opacity=".5"/>
  <path fill="#FF7346" d="m99.99 279.198 17.472 10.084-27.959 16.136-12.816-7.388 1.691-6.347 21.613-12.485Z"/>
  <path fill="#fff" d="m99.99 279.198 17.472 10.084-27.959 16.136-12.816-7.388 1.691-6.347 21.613-12.485Z" opacity=".5"/>
  <path fill="#FF7346" d="m89.5 372.669-17.459-10.083-14.788 8.539-6.347 23.818L89.5 372.669Z"/>
  <path fill="#fff" d="m89.5 372.669-17.459-10.083-14.788 8.539-6.347 23.818L89.5 372.669Z" opacity=".5"/>
  <path fill="#FF7346" d="m136.366 345.604-17.459-10.083-1.446.845v20.167l18.905-10.929Z"/>
  <path fill="#fff" d="m117.461 356.533 18.905-10.929-17.459-10.083-1.446.845v20.167Z" opacity=".5"/>
  <path fill="#FF7346" d="M17.576 423.601.117 413.53l48.567-181.612 17.472 10.083-48.58 181.6Z"/>
  <path fill="#000" d="M17.576 423.601.117 413.53l48.567-181.612 17.472 10.083-48.58 181.6Z" opacity=".15"/>
  <path fill="#263238" d="M413.569 429.829a58.481 58.481 0 0 0-15.364-4.595 28.475 28.475 0 0 0-9.801.086 26.658 26.658 0 0 0-6.641 2.303c-7.204 3.578-8.246 7.56-8.478 10.929-.233 3.37 1.629 7.878 7.584 12.044l102.194 71.589a252.52 252.52 0 0 0 51.459-36.315c-44.402-20.633-116.86-54.289-120.953-56.041Z"/>
  <path fill="#FFBDA7" d="M446.273 279.165c6.273 1.225 8.724 1.654 11.726 6.849 3.001 5.195 8.098 24.504 9.495 28.511 1.397 4.006 1.813 5.464 1.225 9.924-.6 4.656-3.345 12.926-4.496 17.459-.539 2.095-.895 4.141-1.287 6.285a48.08 48.08 0 0 1-2.083 6.445 6.026 6.026 0 0 1-1.825 2.622c-.515.453-1.225.502-1.715.919-.491.416-.625 1.151-1.311 1.495-.687.343-1.642.147-2.316.539-.665.487-1.356.937-2.071 1.347a4.226 4.226 0 0 0-1.752 1.017c-.441.478-.857 1.556-1.654 1.471-.796-.086-1.029-.944-1.066-1.679a6.752 6.752 0 0 1 1.397-3.982 38.683 38.683 0 0 1 2.561-3.676 9.477 9.477 0 0 0 1.887-3.736c.281-.919.196-2.083-.993-1.556-1.384.637-2.855 1.96-4.521 1.666-1.152-.196-1.225-1.103-.551-1.862a34.512 34.512 0 0 0 3.038-3.982c.931-1.434 1.703-2.941 2.671-4.338a21.086 21.086 0 0 1 1.703-2.07c1.691-1.838 1.618-4.35 1.814-6.69.269-3.247.502-11.578.502-11.578l-7.596-18.709-2.782-22.691Z"/>
  <path fill="#fff" d="M456.164 332.143c.074-3.859.233-7.719.38-11.578a998.717 998.717 0 0 1-7.474-18.709c2.647 6.2 5.22 12.428 7.719 18.684-.196 3.872-.367 7.744-.625 11.603Z"/>
  <path fill="#263238" d="M403.921 424.462c2.157-.759 3.762-.833 3.737.233a15.2 15.2 0 0 1-1.384 3.774l-1.716 2.365-.821 2.327s-1.004 1.226-1.066 1.348c-.061.123-.392-4.349-.392-4.349s-1.213-5.146 1.642-5.698Z"/>
  <path fill="#263238" d="M427.072 333.503s-4.9 5.82-7.804 16.724a252.785 252.785 0 0 0-6.126 30.814c-.699 4.644-1.826 10.5-3.492 19.603-1.287 7.009-5.33 28.499-5.33 28.499s2.328 3.871 5.146 5.048c4.043 1.69 7.94.918 8.454-2.696 0 0 2.671-4.264 6.726-15.266a105.017 105.017 0 0 0 4.656-15.536c.401-3.32.52-6.669.356-10.009l16.27-28.29a45.977 45.977 0 0 1 6.42-8.577 16.32 16.32 0 0 0 3.517-5.44c2.695-7.351-1.225-17.238-1.225-17.238l-27.568 2.364Z"/>
  <path fill="#fff" d="M413.204 381.029c-2.622 16.111-5.623 32.162-8.821 48.163 2.818-16.075 5.832-32.113 8.821-48.163Z"/>
  <path fill="#000" d="m406.862 441.578-.87-.171c.061-.331 6.58-33.877 11.137-47.967 4.558-14.09 16.504-42.073 16.626-42.355l.821.355c-.122.27-12.044 28.241-16.589 42.282-4.546 14.041-11.051 47.526-11.125 47.856Z"/>
  <path fill="#000" d="M448.494 342.925h-26.721a57.743 57.743 0 0 0-2.451 7.29 238.907 238.907 0 0 0-5.697 28.364c.649 4.374 1.385 8.87 2.058 11.958 1.801 8.159 2.929 13.918 4.35 17.287a54.043 54.043 0 0 0 4.839 8.136 103.467 103.467 0 0 0 4.546-15.217c.401-3.321.52-6.67.355-10.01l15.928-27.629 1.139-4.349c3.958-6.58 3.504-11.517 1.654-15.83Z"/>
  <path fill="#37474F" d="M382.015 435.33c-.478-.22-1.066 1.654-1.115 2.328-.049.674 1.225 3.418 4.57 5.44 3.345 2.021 9.091 3.149 11.247 3.823 2.157.673 3.884 2.45 6.727 3.834 2.523 1.226 6.334 1.875 8 1.128a2.577 2.577 0 0 0 1.225-1.789c.454-1.385.417-1.703.245-1.752l-30.899-13.012Z"/>
  <path fill="#455A64" d="M414.103 445.279a12.13 12.13 0 0 1-1.385 4.031 4.6 4.6 0 0 1-3.443.87 14.705 14.705 0 0 1-7.241-2.524 22.82 22.82 0 0 0-5.268-2.536 56.546 56.546 0 0 1-7.51-2.377 19.742 19.742 0 0 1-5.036-3.088c-1.225-1.152-2.365-2.45-2.242-4.068a5.104 5.104 0 0 1 1.67-2.599 5.102 5.102 0 0 1 2.863-1.162 15.02 15.02 0 0 1 5.918.894 25.537 25.537 0 0 0 5.673 1.226c1.323.11 2.879 1.225 3.908.061 1.225-1.348 1.703-4.533 2.524-6.126.135-.257.318-.539.6-.6.282-.062.748.281 1.005.624a12.154 12.154 0 0 0 4.484 3.48c4.729 2.34 6.923 1.103 6.923 1.103l.441-.981s.943.527-.258 2.733a35.793 35.793 0 0 0-2.548 5.672 20.62 20.62 0 0 0-1.078 5.367Z"/>
  <path fill="#fff" d="M382.016 435.587c1.482-5.489 7.706-4.018 11.725-2.634a20.25 20.25 0 0 0 4.398 1.017 17.249 17.249 0 0 1-4.459-.796c-3.97-1.225-9.937-2.794-11.664 2.45v-.037Z"/>
  <path fill="#455A64" d="M393.315 432.965c-2.021.184-2.573 3.455-2.573 3.455a17.145 17.145 0 0 0 5.82 1.887 5.765 5.765 0 0 0 4.086-.82 5.767 5.767 0 0 0 2.469-3.358c.857-2.732.073-6.555-.086-7.792a1.676 1.676 0 0 1 1.225-1.985 2.53 2.53 0 0 0-1.773.977 2.535 2.535 0 0 0-.493 1.964c.061 1.47 0 4.374-.625 5.342-.625.967-3.749 1.396-8.05.33Z"/>
  <path fill="#263238" d="M443.957 333.503a20.829 20.829 0 0 1 4.901 12.375 18.524 18.524 0 0 1-3.908 12.252c-1.017 14.898-3.958 43.58-3.958 43.58 3.933 4.044 4.901 6.666 7.229 13.919 1.384 4.411 6.579 18.586 7.866 22.531-6.886.846-10.635 7.695-10.635 7.695s-12.13-17.913-17.961-28.45c-4.325-7.792-6.323-10.634-7.609-15.241-1.593-5.746-2.022-8.711-3.443-18.378-1.421-9.667-2.781-21.968-3.479-31.5a1085.687 1085.687 0 0 1-1.226-19.604l32.223.821Z"/>
  <path fill="#fff" d="M445.508 445.818c-7.07-10.414-14.004-20.951-20.081-31.978a65.738 65.738 0 0 1-5.134-10.108 77.357 77.357 0 0 1-2.597-11.027 525.688 525.688 0 0 1-5.93-60.108l1.029 15.07c.931 15.082 2.806 30.091 5.207 44.989.87 4.901 1.776 9.961 4.006 14.47a432.555 432.555 0 0 0 23.5 38.716v-.024Z"/>
  <path fill="#000" d="M428.363 406.354c-3.565-9.091-7.841-58.577-7.621-75.681h-.894c-.074 5.722.355 15.046 1.09 25.276-2.903-1.47-4.778-4.166-4.778-17.717h-.894c0 13.625 1.776 16.921 5.746 18.746 1.495 20.265 4.166 43.703 6.518 49.719 3.492 8.895 21.711 38.949 21.882 39.207l.772-.466c-.184-.27-18.354-30.25-21.821-39.084Z"/>
  <path fill="#455A64" d="M444.495 444.299c-1.091 1.543-2.328 2.634.772 4.692 2.45 1.581 2.536 2.855 3.283 4.546.487 1.648.686 3.368.588 5.084 0 0 4.117-6.212 2.916-10.218-1.2-4.006-7.559-4.104-7.559-4.104Z"/>
  <path fill="#455A64" d="M457.692 440.746a14.517 14.517 0 0 0 4.031 2.989c1.042.649 2.12 1.225 2.451 2.45 0 .135-.613.87-.601 1.005a6.946 6.946 0 0 1-.061 1.752c-.233 2.022-1.335 3.516-1.58 5.526a15.466 15.466 0 0 1-.429 2.377 14.107 14.107 0 0 0-.233 2.879c-.061 1.005-.135 2.009-.184 3.014a5.032 5.032 0 0 0 0 1.286c.086.429-6.751 3.872-9.507 5.195a4.801 4.801 0 0 1-.503.209 7.134 7.134 0 0 1-5.035-.49c-5.489-1.998-5.146-3.982-5.146-3.982.028-.823.288-1.62.749-2.301a4.368 4.368 0 0 1 1.861-1.547 5.734 5.734 0 0 1 1.053-.477 7.068 7.068 0 0 1 4.264-.209 7.164 7.164 0 0 0 .38-2.536c.112-1.287.133-2.581.061-3.872a9.944 9.944 0 0 0-1.654-4.055c-1.164-1.605-2.45-3.676-3.222-4.803-.772-1.127-.98-3.847 3.59-7.118 4.386-3.124 7.596-2.451 8.221-1.164a18.035 18.035 0 0 0 1.494 3.872Z"/>
  <path fill="#fff" d="M440.812 464.968c0-3.786 4.828-5.685 7.977-4.57-3.223-.6-7.511.894-7.977 4.57Z"/>
  <path fill="#000" d="M445.891 462.383a4.153 4.153 0 0 1 1.948-2.169c.322.037.642.099.955.184-.551.527-2.524 1.311-2.903 1.985Z" opacity=".1"/>
  <path fill="#000" d="M464.811 447.374c1.225.514.209 2.45-1.225 5.452a11.527 11.527 0 0 0-1.47 7.351c.294 2.659-.331 3.958-1.483 4.901-1.151.943-9.703 4.68-9.703 4.68a15.686 15.686 0 0 0 3.369-8.98c.466-5.857 1.029-9.618 3.945-12.179a7.02 7.02 0 0 1 6.567-1.225Z"/>
  <path fill="#37474F" d="M440.819 464.956c.135 1.151 3.406 3.479 7.266 3.43 3.859-.049 4.19-.87 4.79-5.391.601-4.521 1.017-10.806 2.977-13.477 1.961-2.671 4.534-4.288 8.295-3.308.429.208 1.593 1.372 1.164 2.45 0 0 0-.857-1.544-1.311-1.323-.379-2.903-.343-5.109 1.569-2.585 2.217-3.161 7.449-3.455 11.933-.294 4.484-1.691 8.785-5.403 9.189a11.117 11.117 0 0 1-8.944-2.769 4.143 4.143 0 0 1-.037-2.315Z"/>
  <path fill="#263238" d="M418.692 251.035a4.978 4.978 0 0 1-.49-4.901c.625-1.593 1.924-3.272 5.71-5.232 4.508-2.328 16.883-3.994 23.009 4.105.882 1.225-11.296 24.075-10.696 28.816-3.161-3.32-13.588-14.996-13.588-14.996-2.45-1.054-3.969-1.948-4.496-4.276a5.777 5.777 0 0 1 .551-3.516Z"/>
  <path fill="#fff" d="M422.626 258.766c-3.676-.968-6.016-4.191-3.945-7.768-1.568 3.675.527 6.346 3.945 7.768Z"/>
  <path fill="#fff" d="M418.684 251.035c-1.543-1.691-1.164-4.411 0-6.225a12.254 12.254 0 0 1 5.22-3.932 27.234 27.234 0 0 0-2.72 1.788c-2.561 1.777-4.472 5.514-2.451 8.369h-.049Z"/>
  <path fill="#F0997A" d="M420.55 257.54s-3.345 5.453-2.965 5.906a17.255 17.255 0 0 0 2.45 1.629l.515-7.535Z"/>
  <path fill="#fff" d="M420.555 257.54c-.833 1.752-1.838 3.406-2.658 5.146-.111.282-.344.613-.184.809.21.243.458.449.735.613-.331-.184-.882-.331-.956-.772a18.85 18.85 0 0 1 3.063-5.796Z"/>
  <path fill="#FFBDA7" d="M424.687 247.567c-2.243 1.066-4.178 2.782-4.901 7.695-.184 1.286.821 3.038.367 4.741-1.948 7.351.368 13.477 1.789 14.764.956.907 5.979 1.311 8.577.576 3.295-.919 10.463-4.154 13.881-9.312 4.019-6.126 4.901-14.212.478-17.484-6.236-4.606-17.802-2.107-20.191-.98Z"/>
  <path fill="#fff" d="M419.811 255.261c0 1.667.98 3.296.417 4.999-1.042 4.742-1.115 10.378 1.739 14.507-3.136-3.994-3.136-9.802-1.935-14.556.563-1.617-.368-3.271-.221-4.901v-.049Z"/>
  <path fill="#FFBDA7" d="m441.839 269.499 1.299 9.029c2.021.429 2.205 2.818 1.225 4.619l.478 2.549-13.821 2.475-1.543-12.632 12.362-6.04Z"/>
  <path fill="#F0997A" d="M422.234 274.951c1.226.649 3.737 1.127 7.241.637l-.208-1.789a22.3 22.3 0 0 1-3.418.98c-1.19.236-2.408.294-3.615.172Z"/>
  <path fill="#263238" d="M421.385 250.189a4.597 4.597 0 0 0 3.296 4.815 6.878 6.878 0 0 0-.588 3.762 3.983 3.983 0 0 0 2.523 3.467c.968.331 1.226-.098 1.606-.87.49-1.09 1.114-2.757 3.455-2.45 2.683.367 3.393 4.41 1.825 7.057a3.908 3.908 0 0 1-3.026 2.034 2.46 2.46 0 0 1-1.826-.858s.172 3.529 4.717 5.624a13.37 13.37 0 0 0 9.275 1.225 92.624 92.624 0 0 0 5.967-7.351c4.901-7.156 5.942-20.253-2.45-22.605-.405-.111-8.038-1.226-11.762-.368-11.481 2.45-12.988 5.967-13.012 6.518Z"/>
  <path fill="#FF7346" d="M442.101 243.12a4.903 4.903 0 0 0-1.949 3.051 3.541 3.541 0 0 0 1.226 3.32c2.45 1.923 6.273-.319 6.726-3.161.515-3.357-3.529-5.048-6.003-3.21Z"/>
  <path fill="#263238" d="M444.099 244.186c-2.511 1.543-4.079 5.182-2.744 7.804.368.711.882 1.348 1.225 2.095.968 2.39-.441 5.024-.747 7.584a11.166 11.166 0 0 0 1.017 5.93c.833 1.36 2.671 1.703 3.406 3.125.502.98.159 2.181.355 3.271.429 2.34 3.198 3.467 5.587 3.516a6.915 6.915 0 0 0 5.513-2.009 26.198 26.198 0 0 1 1.789-2.45c1.422-1.336 3.676-1.226 5.244-2.451a5.035 5.035 0 0 0 1.691-4.129 13.3 13.3 0 0 0-1.225-4.46c-1.017-2.45-.209-4.03.306-6.518a6.01 6.01 0 0 0-.632-3.928 6.008 6.008 0 0 0-2.946-2.675c-1.727-.687-3.834-.576-5.231-1.814a29.687 29.687 0 0 1-1.862-2.45c-2.622-2.879-7.793-2.242-10.746-.441Z"/>
  <path fill="#FF7346" d="M453.967 285.916a10.916 10.916 0 0 0-6.554-6.506c-1.226-.367-4.276-.882-4.276-.882.698 1.593-.478 2.647-2.549 3.124-2.659.625-6.714.687-9.471-1.139l-1.127-.698a91.576 91.576 0 0 0-8.895 2.671c-.6.281-3.921 1.396-9.14 13.122-2.23 5.011-1.568 10.095 2.536 13.71.233 3.173-1.813 10.316-1.813 10.316a67.96 67.96 0 0 0-.711 18.059s2.451 6.494 21.882 6.42c15.034 0 22.593-7.351 22.593-7.351-.184-3.675-5.966-16.577-5.391-20.914.895-6.322 6.69-17.655 2.916-29.932Z"/>
  <path fill="#FFBDA7" d="M421.093 282.486c3.958 3.222 4.264 7.645 3.676 13.612-.588 5.966-6.58 24.614-7.805 28.669-1.225 4.056-2.977 5.465-6.065 8.748-3.087 3.284-10.304 8.503-13.893 11.493-1.667 1.384-3.149 2.83-4.73 4.337a48.685 48.685 0 0 1-5.464 3.994 6.126 6.126 0 0 1-3.014 1.054c-.686 0-1.287-.319-1.936-.27-.649.049-1.225.564-1.936.441-.71-.122-1.421-.845-2.193-.931a20.67 20.67 0 0 1-2.45-.11 4.07 4.07 0 0 0-2.022-.208c-.637.122-1.605.747-2.205.22-.601-.527-.27-1.372.122-1.997a6.78 6.78 0 0 1 3.48-2.45 37.333 37.333 0 0 1 4.227-1.458 9.502 9.502 0 0 0 3.675-1.924c.76-.576 1.373-1.58.111-1.838-1.495-.306-3.468-.098-4.656-1.311-.809-.833-.331-1.605.662-1.825a33.062 33.062 0 0 0 4.79-1.446c1.593-.612 3.1-1.384 4.705-1.948a22.767 22.767 0 0 1 2.61-.674c2.45-.502 3.859-2.573 5.378-4.349 2.132-2.451 5.795-7.131 8.283-10.488l3.761-18.194c2.377-9.876 3.21-18.158 12.889-21.147Z"/>
  <path fill="#FFBDA7" d="M424.735 296.098a123.352 123.352 0 0 1-3.933 15.927c-.123.429-.258.846-.38 1.226-1.507 5.109-2.965 9.715-3.504 11.504-1.103 3.676-2.659 5.195-5.244 7.891l-.821.857c-3.222 3.419-10.304 8.503-13.894 11.505-1.654 1.384-3.149 2.818-4.717 4.325a49.03 49.03 0 0 1-5.477 4.006 6.128 6.128 0 0 1-3.014 1.042c-.686.061-1.286-.319-1.935-.27-.65.049-1.226.564-1.936.441-.711-.122-1.421-.845-2.193-.919a20.686 20.686 0 0 1-2.451-.122 4.197 4.197 0 0 0-2.021-.208c-.196 0-.429.134-.674.22l-.307.098a1.705 1.705 0 0 1-.428.098.933.933 0 0 1-.784-.196c-.674-.588-.282-1.36.11-1.985a6.762 6.762 0 0 1 3.479-2.45 37.398 37.398 0 0 1 4.227-1.47 9.513 9.513 0 0 0 3.676-1.924c.76-.576 1.372-1.568.11-1.838-1.495-.306-3.467-.098-4.643-1.299-.821-.845-.343-1.617.649-1.837a32.667 32.667 0 0 0 4.791-1.446c1.592-.613 3.112-1.385 4.704-1.936.854-.285 1.726-.51 2.61-.674 2.451-.502 3.859-2.585 5.379-4.349 2.132-2.451 5.795-7.143 8.294-10.5l3.75-18.195c2.376-9.924 3.246-18.206 12.889-21.183a10.024 10.024 0 0 1 2.45 2.916c1.642 2.891 1.679 6.407 1.238 10.745Z"/>
  <path fill="#fff" d="M370.978 353.535a1.334 1.334 0 0 1-.098-1.764c.919-1.776 2.916-2.536 4.681-3.136a16.469 16.469 0 0 1 3.675-1.226 11.008 11.008 0 0 0 3.345-1.703 9.657 9.657 0 0 1-3.284 1.936 26.946 26.946 0 0 0-6.983 2.794c-.809.649-2.218 2.009-1.287 3.05l-.049.049Zm7.027-10.929c-1.519-1.739 1.421-1.96 2.524-2.327 2.916-.748 5.489-2.353 8.356-3.161a10.675 10.675 0 0 0 4.129-1.556c1.997-1.581 4.141-4.754 5.795-6.751l5.513-7.021c1.226-6.126 3.174-15.67 4.632-21.894 1.556-7.351 3.945-15.205 12.129-17.41-8.062 2.291-10.414 10.095-11.909 17.459-1.47 6.322-3.234 15.572-4.619 22.053l-5.562 7.009c-1.703 2.009-3.798 5.121-5.869 6.751a10.815 10.815 0 0 1-4.178 1.556c-2.867.796-5.477 2.364-8.393 3.063-1.115.355-4.031.514-2.548 2.266v-.037Z"/>
  <path fill="#000" d="M448.798 362.185c-.001.476.131.943.379 1.348.258-.318.478-.711.699-.956a4.214 4.214 0 0 1 1.752-1.016 22.39 22.39 0 0 0 2.071-1.348c.661-.392 1.543-.16 2.315-.539.772-.38.797-1.054 1.311-1.495.515-.441 1.225-.466 1.715-.919a6.028 6.028 0 0 0 1.826-2.622 48.113 48.113 0 0 0 2.083-6.444c.392-2.145.747-4.191 1.286-6.286 1.152-4.533 3.896-12.803 4.497-17.459.576-4.46.159-5.93-1.225-9.924-1.385-3.994-6.494-23.279-9.496-28.511-2.842-4.9-5.207-5.562-10.794-6.665l-.331-.086-.563-.122-.441-.098-.564-.11-.331-.062-.808-.159-.613-.11h-.417l-.649-4.521h.159c.993-1.225 2.083-2.389 3.223-3.762.139.161.258.338.355.527.515.98.159 2.169.355 3.259.429 2.353 3.198 3.468 5.587 3.529a6.979 6.979 0 0 0 5.514-2.022 28.413 28.413 0 0 1 1.788-2.45c1.422-1.336 3.676-1.225 5.257-2.45a5.048 5.048 0 0 0 1.678-4.142 13.024 13.024 0 0 0-1.225-4.459c-1.017-2.451-.208-4.031.306-6.506a6.025 6.025 0 0 0-3.565-6.616c-1.74-.686-3.847-.564-5.244-1.814a29.77 29.77 0 0 1-1.85-2.45c-1.96-2.144-5.33-2.328-8.148-1.544a3.926 3.926 0 0 0-2.377-.698c-3.822-2.965-8.809-3.676-13.085-3.333a12.869 12.869 0 0 0-4.276 2.928c-3.847 3.811-6.126 9.41-5.121 14.703.196.992.502 1.948.662 2.94.404 2.537-.16 5.122-.147 7.695.012 2.573.82 5.415 3.05 6.677 1.691.943 3.762.76 5.685 1.005 3.161.404 2.794 2.352 2.916 5.035.053.411.02.828-.098 1.226a1.214 1.214 0 0 1-.22.392c-.821 1.017-3.149 1.421-4.178 1.764a35.807 35.807 0 0 0-5.955 2.009 6.27 6.27 0 0 0-2.23 1.899c-2.34 3.284-3.332 7.192-4.325 11.027a401.663 401.663 0 0 1-2.903 10.635 382.428 382.428 0 0 1-2.867 9.557 33.136 33.136 0 0 1-3.455 8.221c-1.9 2.903-4.619 5.158-7.07 7.633-5.55 5.611-10.194 12.791-17.618 15.486-2.855 1.03-5.918 1.311-8.846 2.095-1.017.27-2.169.809-2.451 1.752a1.62 1.62 0 0 0 .429-.098l.306-.098c.245-.085.478-.171.674-.22a4.201 4.201 0 0 1 2.022.208c.814.089 1.632.13 2.45.123.772.073 1.348.784 2.193.919.846.134 1.226-.392 1.936-.441.711-.049 1.225.33 1.936.269a6.126 6.126 0 0 0 3.014-1.041 49.038 49.038 0 0 0 5.477-4.007c1.568-1.507 3.063-2.94 4.717-4.325 3.59-3.001 10.671-8.086 13.894-11.504l.82-.858c2.573-2.683 4.129-4.19 5.232-7.878.539-1.789 1.997-6.396 3.504-11.505l.38-1.225c.566.689.862 1.56.833 2.45.453 5.955 1.875 11.983 2.843 17.913.686 4.227 1.384 8.454 1.703 12.718.245 3.087.281 6.126.33 9.262l.294 22.054c0 1.225 0 2.45.062 3.749.016 3.471.253 6.937.71 10.377.4 3.033 1.06 6.025 1.973 8.944.22.711.453 1.422.711 2.132 2.536 7.045 6.518 13.478 10.353 19.824a200.153 200.153 0 0 1 10.451 20.976 16.08 16.08 0 0 1 1.372 3.969c.392 2.377-.258 4.791-.441 7.192-.184 2.402.085 4.705 0 7.057a11.399 11.399 0 0 1-1.961 6.653 7.352 7.352 0 0 1-3.786 2.561c1.178.205 2.378.242 3.566.11a4.288 4.288 0 0 0 1.923-.661 92.563 92.563 0 0 0 8.871-4.313c1.152-.919 1.776-2.23 1.495-4.901a11.425 11.425 0 0 1 1.458-7.351 17.424 17.424 0 0 0 1.788-4.301c.307-1.041-.771-2.119-1.225-2.328-.306-1.225-1.384-1.813-2.45-2.45a14.414 14.414 0 0 1-4.019-2.989 17.671 17.671 0 0 1-1.531-3.897 1.669 1.669 0 0 0-.699-.698c-1.887-5.428-5.991-16.712-7.204-20.547-2.279-7.265-3.296-9.887-7.229-13.93 0 0 2.169-21.172 3.431-36.573l1.519-2.658c.159-.282.319-.552.49-.821a46.46 46.46 0 0 1 5.93-7.719c.221-.233.441-.502.662-.76-.331.552-.649 1.103-1.017 1.642-1.458 2.23-3.284 4.619-3.173 7.351Zm7.498-25.263.147-.135a12.32 12.32 0 0 0-.453-2.353c-.282-1.041-.674-2.278-1.103-3.614a24.177 24.177 0 0 0-.429-1.225c-.502-1.495-1.041-3.088-1.531-4.631-.16-.478-.307-.956-.441-1.422-.135-.465-.319-1.029-.454-1.519s-.196-.698-.282-1.041c0-.111-.061-.233-.085-.343-.025-.111-.111-.454-.16-.662a16.67 16.67 0 0 1-.245-1.152l-.073-.404a2.211 2.211 0 0 1 0-.282 4.448 4.448 0 0 1-.074-.539v-.367a6.644 6.644 0 0 1 0-.662 5.207 5.207 0 0 1 0-.637 44.675 44.675 0 0 1 1.36-5.624c.392-1.421.833-2.94 1.226-4.558a482.178 482.178 0 0 1 3.418 6.519 34.83 34.83 0 0 1 2.45 5.39c1.348 4.24 1.017 8.834.503 13.257a65.997 65.997 0 0 1-3.333 14.801 25.812 25.812 0 0 0-.441-8.797Z" opacity=".3"/>
</svg>
