<svg xmlns="http://www.w3.org/2000/svg" width="666" height="624" fill="none" viewBox="0 0 666 624">
  <mask id="a" width="666" height="624" x="0" y="0" maskUnits="userSpaceOnUse" style="mask-type:luminance">
    <path fill="#fff" d="M665.969.957H.031v622.086H665.97V.957Z"/>
  </mask>
  <g mask="url(#a)">
    <path fill="#FF6534" d="M332.978 238.204c183.753 0 332.947 86.137 332.947 192.227S516.731 622.658 332.978 622.658C149.225 622.658.031 536.521.031 430.431s149.194-192.227 332.947-192.227Z"/>
    <path fill="#FB8E6B" d="M264.079 443.529c63.365 0 114.813 29.703 114.813 66.287s-51.448 66.287-114.813 66.287c-63.366 0-114.813-29.703-114.813-66.287s51.447-66.287 114.813-66.287Z"/>
    <path fill="#516C8E" d="m590.586 426.885-13.464-7.772s-3.297-28.832-1.103-51.162c3.083-31.377 23.347-69.132 47.52-60.265 24.176 8.866-11.083 40.821-18.931 67.434-7.848 26.614-14.022 51.765-14.022 51.765Z"/>
    <path fill="#000" d="m590.586 426.885-13.464-7.772s-3.297-28.832-1.103-51.162c3.083-31.377 23.347-69.132 47.52-60.265 24.176 8.866-11.083 40.821-18.931 67.434-7.848 26.614-14.022 51.765-14.022 51.765Z" opacity=".15"/>
    <path fill="#fff" d="M583.503 423.614h.026a.813.813 0 0 0 .787-.843c-2.364-69.72 32.342-104.791 32.693-105.136a.813.813 0 0 0 .008-1.152.813.813 0 0 0-1.152-.009c-.357.351-35.567 35.927-33.178 106.353a.816.816 0 0 0 .816.787Z"/>
    <path fill="#516C8E" d="m599.041 431.734-9.579-5.532s-1.629-19.785 8.071-43.82c8.444-20.924 29.399-38.284 39.937-34.636 10.539 3.648 10.276 11.121 5.139 18.96-5.139 7.839-36.398 26.524-43.568 65.028Z"/>
    <path fill="#fff" d="M593.988 429.631h.003a.814.814 0 0 0 .811-.818c-.19-44.082 41.202-73.877 41.622-74.174a.814.814 0 0 0-.943-1.328c-.424.3-42.502 30.587-42.308 75.508a.815.815 0 0 0 .815.812Z"/>
    <path fill="#516C8E" d="m92.254 409.564 12.431-8.389s5.472-32.57.387-61.178c-7.149-40.221-34.886-53.607-44.786-49.404-9.898 4.203-12.014 16.2 6.454 39.164 10.898 13.547 25.133 42.359 25.514 79.807Z"/>
    <path fill="#000" d="m92.254 409.564 12.431-8.389s5.472-32.57.387-61.178c-7.149-40.221-34.886-53.607-44.786-49.404-9.898 4.203-12.014 16.2 6.454 39.164 10.898 13.547 25.133 42.359 25.514 79.807Z" opacity=".15"/>
    <path fill="#fff" d="M96.514 393.453a.898.898 0 0 1-.913-1.006c4.491-37.872-11.5-78.961-28.888-95.309a.9.9 0 0 1 1.235-1.312c17.706 16.645 33.997 58.402 29.441 96.833a.902.902 0 0 1-.875.794Z"/>
    <path fill="#516C8E" d="M59.686 431.528c-1.973 1.184-7.74-3.094-9.336-4.12-2.733-1.758-4.968-4.278-6.476-7.149-1.754-3.34-2.248-6.947-1.791-10.688.237-1.941.741-3.837 1.244-5.725l1.485-5.564c.487-1.83.98-3.723.702-5.597-.557-3.773-3.967-6.359-7.064-8.586-3.425-2.463-7.006-5.733-7.074-10.289-.053-3.514 1.704-6.814 3.829-9.614 2.125-2.801 4.661-5.289 6.575-8.238 1.376-2.124 2.434-4.607 2.155-7.123-.174-1.563-.85-3.025-1.627-4.392-1.666-2.935-3.84-5.611-5.01-8.776-1.172-3.164-1.09-7.132 1.352-9.459 2.006-1.911 5.034-2.23 7.801-2.101 2.56.12 5.08 1.225 7.339 2.425 7.309 3.882 11.602 12.366 19.336 15.313 2.983 1.137 6.231 1.334 9.333 2.09 3.101.756 6.278 2.272 7.762 5.098 2.925 5.571-2.168 12.608-.072 18.542 1.854 5.25 7.027 7.175 10.004 11.882 1.301 2.059 1.639 4.462 1.483 6.893-.265 4.115-.809 7.141-2.692 11.748-1.556 3.808-6.177 11.121-6.177 11.121s-32.78 22.127-33.081 22.309Z"/>
    <path fill="#fff" d="m78.786 419.81-.024.001a.907.907 0 0 1-.894-.921c.796-35.78-16.81-74.922-29.28-86.153a.9.9 0 1 1 1.206-1.34c12.72 11.457 30.682 51.248 29.877 87.532a.902.902 0 0 1-.885.881Z"/>
    <path fill="#fff" d="M72.206 376.223a.882.882 0 0 1-.267-.036c-11.555-3.33-25.883-3.678-26.025-3.681a.904.904 0 0 1-.883-.92c.013-.496.381-.897.922-.883.146.005 14.7.36 26.484 3.755a.901.901 0 0 1-.232 1.765Z"/>
    <path fill="#455A64" d="m405.281 384.971-5.362-3.098c-1.688-.977-3.058-3.351-3.058-5.302l-.002-222.61c0-1.95 1.37-4.323 3.06-5.299l148.878-85.954c1.69-.976 4.431-.976 6.12-.001l5.363 3.096c1.69.975 3.06 3.348 3.06 5.299V293.71c0 1.952-1.37 4.325-3.06 5.3l-148.881 85.963c-1.689.975-4.429.973-6.118-.003Z"/>
    <path fill="#455A64" d="M563.304 70.605c-.212-1.583-1.497-2.162-3.038-1.272l-148.872 85.968c-.848.495-1.597 1.315-2.162 2.276l-11.49-6.628c.552-.961 1.314-1.795 2.162-2.29L548.79 62.705c1.682-.975 4.423-.975 6.119 0l5.357 3.095c1.555.89 2.841 2.968 3.038 4.805Z"/>
    <path fill="#263238" d="M410.879 385.218c-1.696.72-4.07.636-5.597-.241l-5.37-3.108c-1.682-.976-3.053-3.35-3.053-5.3V153.958c0-.975.339-2.049.891-3.01l11.489 6.628c-.565.961-.904 2.049-.904 3.024v222.611c0 1.752 1.102 2.558 2.544 2.007Z"/>
    <path fill="#37474F" d="M408.328 160.598v222.609c0 1.95 1.371 2.742 3.06 1.767l148.881-85.963c1.69-.975 3.06-3.347 3.06-5.299V71.102c0-1.95-1.37-2.742-3.06-1.766L411.388 155.3c-1.689.975-3.06 3.347-3.06 5.299Z"/>
    <path fill="#455A64" d="M373.573 245.452c-1.922-1.145-10.84-6.219-11.307-6.487-1.412-.862-1.921-2.954-.607-4.367l35.204-37.762 11.476 6.586-35.19 37.776c-1.272 1.356-.862 3.321.424 4.254Z"/>
    <path fill="#37474F" d="m408.339 203.428-35.197 37.766c-1.763 1.892-.274 4.963 2.304 4.751l32.892-2.709.001-39.808Z"/>
    <path fill="#D33A09" d="M485.831 135.473c17.351-10.019 31.418-1.897 31.418 18.138s-14.067 44.398-31.418 54.417c-17.351 10.018-31.417 1.896-31.417-18.139s14.066-44.399 31.417-54.416Z"/>
    <path fill="#fff" d="M485.615 151.241c5.629-3.25 10.193-.616 10.193 5.883 0 6.501-4.564 14.406-10.193 17.656-5.63 3.25-10.193.615-10.193-5.886 0-6.5 4.563-14.404 10.193-17.653Zm20.087 34.66c0-10.681-7.498-15.009-16.745-9.668l-5.782 3.336c-9.246 5.339-16.745 18.326-16.745 29.005v2.913c1.669.555 3.482.828 5.397.833 4.219.008 8.968-1.381 14.008-4.292 7.538-4.351 14.453-11.414 19.867-19.651v-2.476Z"/>
    <path fill="#D33A09" d="m465.935 307.223 39.805-22.983c1.689-.975 3.06-.185 3.06 1.767v12.819c0 1.952-1.371 4.325-3.06 5.3l-39.805 22.982c-1.69.976-3.06.186-3.06-1.766v-12.819c0-1.952 1.37-4.325 3.06-5.3Z"/>
    <path fill="#FAFAFA" d="m446.462 278.584 78.766-45.476c2.028-1.17 3.671-.221 3.671 2.121v4.77c0 2.342-1.643 5.189-3.671 6.36l-78.767 45.476c-2.027 1.17-3.672.221-3.672-2.121v-4.771c0-2.342 1.645-5.19 3.673-6.359Zm7.075-25.033 2.059-1.19a3.411 3.411 0 0 0 1.211-1.16c.301-.48.451-1.1.451-1.865 0-.764-.15-1.207-.451-1.325-.302-.119-.705-.033-1.211.26l-2.059 1.188v4.092Zm2.127-7.878c1.071-.621 1.904-.713 2.498-.276.594.434.891 1.403.891 2.902 0 1.502-.297 2.818-.891 3.951-.594 1.135-1.427 2.011-2.498 2.632l-2.127 1.226v4.564c0 .15-.036.3-.106.451a.658.658 0 0 1-.253.307l-1.075.622c-.099.058-.182.052-.255-.017-.07-.069-.106-.176-.106-.326V248.49c0-.15.036-.301.106-.451.073-.15.156-.254.255-.309l3.561-2.057Zm10.053 3.182-1.462-4.987-1.462 6.673 2.924-1.686Zm-.731-8.563c.141-.08.249-.085.32-.01.072.075.133.214.186.414l3.256 11.055a.55.55 0 0 1 .013.134c0 .151-.036.3-.106.451-.071.15-.156.254-.253.308l-.957.553c-.176.102-.301.116-.372.042a.607.607 0 0 1-.146-.255l-.572-1.94-4.2 2.426-.571 2.599a2.062 2.062 0 0 1-.147.423.868.868 0 0 1-.371.391l-.957.55c-.097.055-.182.05-.253-.019-.07-.066-.106-.177-.106-.326 0-.055.004-.104.014-.15l3.256-14.814c.054-.263.115-.473.185-.629a.76.76 0 0 1 .32-.358l1.461-.845Zm8.722-5.238c.593-.342 1.116-.522 1.567-.536.454-.016.828.074 1.131.269.301.195.528.469.685.822.154.353.241.724.258 1.108a.87.87 0 0 1-.098.456.733.733 0 0 1-.26.303l-.932.537c-.15.088-.261.107-.337.063a.597.597 0 0 1-.208-.237 1.05 1.05 0 0 0-.602-.542c-.273-.095-.673.008-1.204.316a3.597 3.597 0 0 0-.657.492 3.423 3.423 0 0 0-.544.643 3.111 3.111 0 0 0-.367.731 2.344 2.344 0 0 0-.132.773c0 .315.041.546.125.695.084.15.225.238.426.266.197.028.463.008.79-.058s.736-.158 1.222-.277c.532-.129.991-.185 1.377-.168.385.017.698.12.942.313.245.195.425.475.546.842.12.368.18.831.18 1.39 0 .614-.09 1.235-.267 1.862a7.755 7.755 0 0 1-.757 1.788 8.2 8.2 0 0 1-1.21 1.589 7.294 7.294 0 0 1-1.608 1.256c-.497.287-.971.469-1.422.544-.452.077-.852.044-1.203-.103-.35-.146-.631-.403-.845-.771-.211-.367-.33-.845-.357-1.43a.877.877 0 0 1 .099-.457.722.722 0 0 1 .258-.303l.932-.535c.151-.089.265-.114.345-.078.08.036.147.12.2.251.063.143.136.277.227.403a.683.683 0 0 0 .357.263c.151.05.339.052.565.013.226-.043.507-.16.844-.356.265-.151.523-.331.772-.538a3.78 3.78 0 0 0 1.102-1.475c.115-.279.173-.574.173-.889 0-.296-.063-.507-.185-.627-.125-.121-.313-.174-.566-.164a4.665 4.665 0 0 0-.937.151c-.372.092-.803.184-1.289.274-.444.093-.831.122-1.165.088a1.36 1.36 0 0 1-.822-.354c-.217-.2-.378-.493-.484-.876-.107-.383-.16-.878-.16-1.495 0-.611.088-1.231.265-1.849a7.906 7.906 0 0 1 .732-1.751 7.717 7.717 0 0 1 1.11-1.511 6.009 6.009 0 0 1 1.388-1.121Zm9.273-5.355c.594-.341 1.117-.521 1.568-.537.452-.014.829.074 1.132.268.299.195.528.47.683.823.155.355.241.724.26 1.108a.881.881 0 0 1-.1.457.715.715 0 0 1-.259.302l-.931.538c-.151.086-.263.108-.34.064a.631.631 0 0 1-.205-.239 1.056 1.056 0 0 0-.604-.543c-.27-.094-.672.008-1.204.317a3.632 3.632 0 0 0-.657.492c-.21.196-.391.409-.545.643a3.234 3.234 0 0 0-.366.732 2.389 2.389 0 0 0-.133.773c0 .315.043.545.126.694.085.151.225.239.426.267.2.027.463.008.79-.058.328-.066.736-.158 1.223-.277.533-.13.989-.185 1.375-.17.386.017.702.121.943.315.245.194.427.475.546.842.12.368.179.831.179 1.39 0 .612-.087 1.234-.264 1.863a7.787 7.787 0 0 1-.758 1.786 8.142 8.142 0 0 1-1.211 1.59 7.307 7.307 0 0 1-1.607 1.255c-.497.287-.97.469-1.421.544-.452.078-.854.044-1.203-.103-.351-.145-.632-.402-.845-.772-.212-.367-.332-.843-.359-1.428a.866.866 0 0 1 .102-.457.704.704 0 0 1 .257-.304l.931-.535c.15-.088.265-.114.345-.076.08.034.146.118.199.251.063.141.138.276.226.403a.694.694 0 0 0 .359.261c.151.05.341.052.566.013.226-.042.506-.16.843-.355.266-.152.523-.33.77-.538a3.814 3.814 0 0 0 1.106-1.476c.114-.277.17-.572.17-.887 0-.3-.062-.508-.185-.629-.124-.119-.313-.174-.566-.164-.25.01-.564.059-.937.151-.37.093-.801.183-1.289.275-.441.091-.831.121-1.163.088a1.372 1.372 0 0 1-.823-.353c-.218-.202-.38-.493-.486-.878-.106-.38-.158-.879-.158-1.494 0-.611.087-1.23.264-1.849a7.941 7.941 0 0 1 1.841-3.263c.431-.46.894-.833 1.389-1.12Zm10.291 1.767-1.144 6.778c-.043.229-.1.43-.166.596a.699.699 0 0 1-.298.368l-1.079.622c-.133.076-.237.073-.31-.016-.077-.085-.127-.223-.153-.411l-1.703-11.929a1.366 1.366 0 0 1-.013-.156c0-.151.037-.301.107-.452.07-.149.155-.253.252-.308l.983-.57c.089-.049.175-.057.254-.02.079.035.133.146.158.337l1.117 8.031.984-6.031c.017-.106.06-.255.127-.443a.745.745 0 0 1 .339-.419l1.088-.63c.161-.093.274-.081.34.03.066.112.108.21.125.294l.985 4.898 1.116-9.321c.025-.221.08-.394.16-.523a.752.752 0 0 1 .253-.269l.982-.568c.098-.055.182-.049.253.02.071.066.106.176.106.327 0 .039-.004.097-.012.169l-1.702 13.896c-.027.22-.078.416-.151.588a.776.776 0 0 1-.314.376l-1.077.621c-.134.078-.233.071-.299-.02a1.27 1.27 0 0 1-.168-.405l-1.14-5.46Zm12.642-9.365c-.036-.961-.241-1.603-.618-1.925-.376-.321-.875-.304-1.494.055-.622.359-1.119.916-1.497 1.673-.376.756-.583 1.634-.618 2.637a51.5 51.5 0 0 0 0 3.459c.035.962.242 1.599.618 1.914.378.314.875.293 1.497-.064.619-.358 1.118-.913 1.494-1.661.377-.75.582-1.625.618-2.629a49.24 49.24 0 0 0 .026-1.745c0-.635-.007-1.204-.026-1.714Zm-6.022 3.375c.029-.779.122-1.555.286-2.325a10.15 10.15 0 0 1 .725-2.178 8.568 8.568 0 0 1 1.195-1.877 6.4 6.4 0 0 1 1.704-1.423c.646-.373 1.208-.554 1.686-.544.479.011.877.176 1.197.496.318.321.561.768.729 1.338.169.573.267 1.236.294 2a55.083 55.083 0 0 1 .027 1.816 59.236 59.236 0 0 1-.027 1.846 13.346 13.346 0 0 1-.286 2.325 10.118 10.118 0 0 1-.723 2.177 8.331 8.331 0 0 1-1.203 1.872 6.443 6.443 0 0 1-1.694 1.407c-.657.379-1.223.564-1.704.554-.478-.011-.875-.172-1.195-.488-.319-.312-.56-.759-.725-1.341-.164-.58-.257-1.245-.286-1.993a55.354 55.354 0 0 1-.025-1.815 60.604 60.604 0 0 1 .025-1.847Zm12.036-5.84 1.926-1.112a3.589 3.589 0 0 0 1.211-1.108c.301-.447.451-1.052.451-1.816s-.15-1.189-.451-1.275c-.303-.083-.703.019-1.211.311l-1.926 1.112v3.888Zm1.994-7.597c1.106-.639 1.947-.728 2.524-.27.575.459.865 1.391.865 2.795 0 .997-.149 1.931-.445 2.805a7.011 7.011 0 0 1-1.311 2.321l1.835 3.995a.536.536 0 0 1 .039.204.855.855 0 0 1-.086.367.545.545 0 0 1-.206.251l-1.13.651c-.177.103-.307.113-.392.034a.778.778 0 0 1-.18-.254l-1.739-3.766-1.768 1.022v4.768c0 .15-.037.3-.107.448-.072.153-.155.255-.252.313l-1.077.62c-.098.055-.182.049-.252-.018-.072-.068-.107-.176-.107-.327v-13.217c0-.151.035-.301.107-.452a.682.682 0 0 1 .252-.312l3.43-1.978Zm11.602-1.051a4.842 4.842 0 0 0-.165-1.121c-.094-.321-.23-.569-.412-.743a.945.945 0 0 0-.685-.262c-.276.003-.603.113-.983.334l-1.781 1.027v9.209l1.847-1.066c.363-.21.679-.469.944-.781.265-.31.486-.651.664-1.029.177-.375.312-.778.406-1.215.092-.436.147-.878.165-1.323.034-1.032.034-2.04 0-3.03Zm-2.179-4.39c.656-.377 1.224-.574 1.707-.586.483-.011.887.132 1.21.437.323.304.571.754.745 1.35.172.596.276 1.315.312 2.154a43.64 43.64 0 0 1 0 3.027c-.036.881-.14 1.719-.312 2.513a10.3 10.3 0 0 1-.738 2.208 7.764 7.764 0 0 1-1.19 1.821 6.566 6.566 0 0 1-1.667 1.363l-3.35 1.933c-.099.056-.18.051-.253-.018-.07-.068-.106-.176-.106-.327v-13.219c0-.149.036-.301.106-.45.073-.15.154-.254.253-.311l3.283-1.895Z"/>
    <path fill="#D33A09" d="M322.517 46.955a2.087 2.087 0 0 1 1.355.96c.328.515.427 1.06.299 1.637l-1.535 6.936a2.096 2.096 0 0 1-.963 1.359 2.09 2.09 0 0 1-1.635.3l-6.778-1.502a2.09 2.09 0 0 1-1.359-.963 2.082 2.082 0 0 1-.3-1.637l1.536-6.936a2.11 2.11 0 0 1 .961-1.358c.516-.325 1.059-.427 1.639-.298l6.78 1.502Zm6.76-45.468a26.246 26.246 0 0 1 6.984 2.623c2.186 1.2 4.04 2.671 5.555 4.413a15.908 15.908 0 0 1 3.274 5.935c.668 2.214.715 4.61.146 7.183-.465 2.103-1.199 3.857-2.198 5.26a17.122 17.122 0 0 1-3.446 3.62 27.826 27.826 0 0 1-4.102 2.646 1877.76 1877.76 0 0 0-4.074 2.155 23.139 23.139 0 0 0-3.475 2.25c-1.036.819-1.76 1.79-2.174 2.908a3.148 3.148 0 0 1-1.04 1.34c-.462.34-.981.444-1.557.317l-5.992-1.327c-.579-.127-1.045-.45-1.397-.971-.353-.519-.441-1.06-.26-1.627.56-2.025 1.391-3.73 2.496-5.111a19.709 19.709 0 0 1 3.683-3.568 28.411 28.411 0 0 1 4.211-2.58c1.455-.725 2.81-1.43 4.067-2.118 1.253-.686 2.323-1.415 3.209-2.183.887-.767 1.454-1.704 1.697-2.808.443-1.995-.034-3.824-1.43-5.485-1.397-1.658-3.488-2.796-6.273-3.414-4.466-.99-8.245.517-11.335 4.518-.391.522-.763.892-1.114 1.117-.354.227-.873.263-1.557.112l-6.382-1.414a1.782 1.782 0 0 1-1.116-.745c-.273-.39-.35-.848-.235-1.373.459-1.828 1.442-3.582 2.944-5.26 1.499-1.681 3.331-3.094 5.485-4.243 2.158-1.148 4.569-1.952 7.232-2.408 2.664-.457 5.388-.38 8.174.238Z" opacity=".679"/>
    <path fill="#D33A09" d="M344.115 98.661a1.46 1.46 0 0 1 1.118.269c.34.247.542.571.608.973l.792 4.841c.066.403-.024.776-.27 1.116a1.442 1.442 0 0 1-.972.611l-4.73.773a1.443 1.443 0 0 1-1.117-.269 1.432 1.432 0 0 1-.61-.972l-.792-4.841a1.45 1.45 0 0 1 .27-1.117c.244-.34.57-.546.973-.612l4.73-.772Zm-7.304-30.877a18.038 18.038 0 0 1 5.148-.108c1.709.209 3.274.677 4.692 1.405a10.998 10.998 0 0 1 3.617 2.967c.997 1.25 1.64 2.773 1.933 4.568.239 1.468.219 2.781-.063 3.936a11.83 11.83 0 0 1-1.284 3.204 19.198 19.198 0 0 1-1.951 2.746c-.725.853-1.413 1.66-2.059 2.425a15.993 15.993 0 0 0-1.652 2.332c-.455.788-.671 1.595-.649 2.419a2.19 2.19 0 0 1-.323 1.127 1.28 1.28 0 0 1-.919.602l-4.181.682a1.534 1.534 0 0 1-1.144-.264c-.359-.241-.555-.568-.583-.978-.161-1.442-.063-2.745.293-3.914a13.525 13.525 0 0 1 1.447-3.23c.61-.985 1.29-1.895 2.039-2.733a80.564 80.564 0 0 0 2.065-2.4 12.754 12.754 0 0 0 1.5-2.219c.371-.72.496-1.466.37-2.237-.228-1.39-1.002-2.44-2.323-3.148-1.32-.707-2.953-.902-4.896-.584-3.116.51-5.153 2.442-6.111 5.798-.117.433-.259.766-.43 1.001-.168.237-.49.393-.967.47l-4.452.728a1.238 1.238 0 0 1-.909-.19c-.274-.183-.441-.455-.502-.823-.174-1.287.007-2.663.541-4.125.532-1.462 1.343-2.837 2.431-4.124 1.088-1.289 2.43-2.42 4.02-3.395 1.592-.976 3.358-1.622 5.302-1.938Z" opacity=".555"/>
    <path fill="#D33A09" d="M396.352 43.294a21.367 21.367 0 0 1 4.426 4.199c1.265 1.6 2.193 3.298 2.778 5.093.588 1.797.78 3.632.577 5.513-.203 1.883-.929 3.703-2.18 5.461-1.019 1.434-2.13 2.522-3.329 3.26a13.95 13.95 0 0 1-3.749 1.63c-1.3.346-2.612.575-3.933.69-1.325.11-2.576.22-3.758.324a18.728 18.728 0 0 0-3.333.588c-1.041.287-1.897.788-2.565 1.5a2.566 2.566 0 0 1-1.211.677c-.455.11-.879.022-1.273-.257l-4.092-2.91c-.395-.279-.643-.67-.743-1.175-.102-.503.005-.94.322-1.31 1.068-1.348 2.236-2.365 3.511-3.055a16.205 16.205 0 0 1 3.91-1.514 23.106 23.106 0 0 1 3.994-.603 96.59 96.59 0 0 0 3.738-.301c1.163-.118 2.2-.325 3.115-.621.911-.297 1.636-.821 2.172-1.574.969-1.364 1.192-2.891.668-4.589-.522-1.694-1.735-3.217-3.636-4.569-3.051-2.168-6.378-2.237-9.98-.208-.461.267-.859.43-1.196.486-.339.057-.738-.078-1.205-.41l-4.36-3.1a1.454 1.454 0 0 1-.605-.916c-.08-.38.008-.75.262-1.11.927-1.23 2.225-2.24 3.893-3.025 1.666-.787 3.494-1.27 5.485-1.449 1.989-.178 4.06-.015 6.214.49 2.152.504 4.181 1.432 6.083 2.785Zm-19.579 32.097c.395.281.634.666.718 1.158.082.492-.017.934-.296 1.329l-3.366 4.736a1.712 1.712 0 0 1-1.158.716 1.72 1.72 0 0 1-1.33-.296l-4.627-3.29a1.713 1.713 0 0 1-.717-1.157 1.715 1.715 0 0 1 .297-1.329l3.367-4.737a1.697 1.697 0 0 1 1.157-.715c.49-.083.932.014 1.329.295l4.626 3.29Z" opacity=".918"/>
    <path fill="#263238" d="M271.537 200.496h-50.209V78.837c0-22 17.836-39.835 39.837-39.835h4.638c22.001 0 39.837 17.835 39.837 39.835v87.558c0 18.835-15.269 34.101-34.103 34.101Zm-55.083 292.865c-.413 3.055-1.29 6.623-1.455 15.269-.176 9.268-1.879 12.558-2.104 20.164-.257 8.693 1.244 11.945 4.771 16.83 3.526 4.885 12.783 9.318 16.696 1.06 3.96-8.357 3.409-13.667 2.158-22.193-1.294-8.815-1.458-13.684-2.207-20.407-.66-5.925-1.451-10.426-1.451-10.426l-16.408-.297Z"/>
    <path fill="#FFA8A7" d="m242.751 431.785-30.532-.552c.453 20.38 3.693 43.004 4.221 62.128.099 3.599-.09 27.971 1.268 35.378 2.039 11.128 15.249 9.625 15.949 2.966.702-6.659-.85-35.113-.809-38.048-.116-12.264 5.631-32.966 8.646-54.982.149-1.083 1.117-5.835 1.257-6.89Z"/>
    <path fill="#263238" d="M281.984 477.5s-1.205-.647-1.454.639c-.295 1.53-.737 4.684-1.373 7.197-.883 3.493-1.618 9.244-1.088 12.089.529 2.845 7.163 6.509 11.47 7.831 6.354 1.95 10.713 5.137 14.195 8.413 4.265 4.014 13.469 7.807 19.737 7.762 7.417-.054 12.587-2.471 15.031-6.442 2.552-4.148-2.226-4.453-10.703-9.952-1.925-1.249-4.116-2.661-6.581-4.273-13.428-8.771-18.345-13.472-22.144-22.245l-17.09-1.019Z"/>
    <path fill="#FFA8A7" d="M299.184 472.069c-.226-6.31 4.101-59.845 4.101-59.845l-28.996 13.218c6.21 37.061 7.533 45.799 7.643 51.863-.049.141-.172.655-.164 1.552.027 7.2 8.152 11.084 14.49 15.883 2.504 1.896 9.785 7.495 17.144 11.192 4.604 2.315 13.958 2.525 15.116-.438-7.714-5.889-18.932-14.705-25.067-21.431-2.93-3.212-4.041-5.683-4.267-11.994Z"/>
    <path fill="#2F4189" d="M224.743 232.924c-11.13 24.446-11.129 43.349-9.291 74.54 1.687 28.611 4.38 53.799 4.38 53.799-.431 5.078-7.487 14.984-8.4 37.419-.853 20.975 1.444 47.639 1.444 47.639s15.839 8.78 27.553-.077c0 0 11.302-53.968 14.615-80.225 2.89-22.913 7.912-52.19 7.912-52.19l10.639 52.067s-4.046 12.837-4.994 22.615c-1.495 15.443 7.141 45.77 7.141 45.77s16.368 4.883 26.362-3.981c0 0 3.738-49.305 5.133-67.909 1.869-24.912-2.059-92.357-5.134-128.063l-77.36-1.404Z"/>
    <path fill="#263238" d="m262.945 313.83 4.398-39.192s19.701-2.634 28.626-11.024c0 0-6.707 12.288-23.214 14.672l-6.359 36.469 7.188 51.141-10.639-52.066Z"/>
    <path fill="#FFA8A7" d="M342.733 223.294c1.226-12.013 1.18-20.016 1.074-21.555-.431-6.219-1.543-7.232-10.238-18.252-11.74-14.879-21.759-28.251-32.355-41.555-7.567-9.499-15.518-10.961-23.286-10.53-5.429.299 5.165 26.402 10.502 41.846l30.458 32.761a6.53 6.53 0 0 1 1.212 4.474l-1.87 27.889 9.119 12.2s13.813-11.907 15.384-27.278Z"/>
    <path fill="#D33A09" d="M248.579 132.247c-5.888.406-16.603 1.349-16.603 1.349-6.181 3.45-7.743 6.277-8.893 14.488-.489 3.493 2.358 12.811 4.802 26.051l4.64 24.553-.504 12.176c-2.409 7.43-7.855 16.666-12.654 30.278 23.596 13.169 43.386 13.656 61.333 11.352 13.685-1.757 20.926-5.068 23.342-8.339-.504-13.448-1.456-21.753-1.689-35.802-.097-5.902.257-11.854.486-18.646 9.182-7.542 9.287-20.087 4.278-28.195-11.637-18.837-22.948-30.697-30.441-30.089l-28.097.824Z"/>
    <path fill="#000" d="M284.58 189.908s-10.777 8.364-23.075 4.001c-12.3-4.361-14.095-15.113-14.095-15.113s-1.305 14.061 14.209 18.856c14.972 4.627 22.961-7.744 22.961-7.744Z" opacity=".1"/>
    <path fill="#FFA8A7" d="M299.181 93.653c-.463 20.403-7.086 25.447-10.404 26.895-3.319 1.449-9.725.565-15.94-.464v12.245s7.173 7.521 6.637 13.129c-.552 5.623-11.276 6.247-19.333.755-5.88-4.007-10.08-8.584-11.911-10.756a4.357 4.357 0 0 1-1.03-2.819v-28.813s-3.404 3.608-9.433-.521c-6.013-4.116-6.534-11.797-2.855-16.144 2.623-3.087 9.289-3.305 12.492 1.492 1.796 3.522 2.043 7.058 4.057 5.594 5.376-3.87 2.493-12.666 8.984-17.013.016 0 .016-.014.03-.014a45.447 45.447 0 0 1 6.608-2.884c11.579-4 21.606-7.361 24.027-15.273 4.565 2.709 8.637 10.52 8.071 34.59Z"/>
    <path fill="#B16668" d="M276.362 106.35a2.854 2.854 0 1 1-.002 5.708 2.854 2.854 0 0 1 .002-5.708Z"/>
    <path fill="#263238" d="M274.579 90.559c.082 1.618-1.115 2.99-2.671 3.063-1.558.073-2.885-1.178-2.967-2.794-.08-1.618 1.116-2.99 2.673-3.063 1.556-.073 2.884 1.177 2.965 2.794Zm21.416.278c.076 1.471-1.013 2.718-2.429 2.784-1.557.074-2.613-.924-2.695-2.54-.075-1.47 1.014-2.717 2.428-2.783 1.416-.068 2.623 1.07 2.696 2.54Z"/>
    <path fill="#455A64" d="M270.942 83.833c-5.573 0-7.743 1.346-7.743 4.8 0 4.27 3.473 7.743 7.743 7.743 4.269 0 7.742-3.473 7.742-7.742 0-3.456-2.171-4.8-7.742-4.8Zm0 13.992c-5.069 0-9.192-4.123-9.192-9.191 0-6.25 6.44-6.25 9.192-6.25 2.751 0 9.191 0 9.191 6.25 0 5.068-4.123 9.19-9.191 9.19Zm23.336-13.992c-5.573 0-7.743 1.346-7.743 4.8 0 4.27 3.473 7.743 7.743 7.743 4.269 0 7.742-3.473 7.742-7.742 0-3.456-2.171-4.8-7.742-4.8Zm0 13.992c-5.069 0-9.192-4.123-9.192-9.191 0-6.25 6.44-6.25 9.192-6.25 2.749 0 9.191 0 9.191 6.25 0 5.068-4.123 9.19-9.191 9.19Z"/>
    <path fill="#F28F8F" d="m281.57 85.671.454 17.164 9.033-2.798-9.487-14.366Zm-8.74 34.41c-6.562-.861-20.062-4.739-22.166-10.076 0 0 .701 3.354 4.734 6.811 4.033 3.455 17.432 7.349 17.432 7.349v-4.084Z"/>
    <path fill="#263238" d="m273.145 76.035-5.985 3.65c-.981-1.724-.436-3.936 1.218-4.944 1.652-1.008 3.787-.428 4.767 1.294Zm24.393 2.124-6.671-2.33c.58-1.88 2.541-2.883 4.384-2.24 1.842.643 2.865 2.689 2.287 4.57Z"/>
    <path fill="#455A64" d="M279.404 89.364a.73.73 0 0 1-.724-.73c0-1.177 2.326-1.936 4.413-1.936 2.088 0 3.436.759 3.436 1.936a.724.724 0 1 1-1.449 0c-.064-.133-.733-.488-1.987-.488s-2.899.355-2.966.5c0 .4-.324.718-.723.718Zm-16.895-.611a.763.763 0 0 1-.082-.004l-16.155-1.473c-.29-.269-1.054-1.057-2.647-1.718l18.963 1.75a.725.725 0 0 1-.079 1.445Z"/>
    <path fill="#FFA8A7" d="M267.145 45.91c-.297-2.19-1.913-2.435-5.794-3.742-3.881-1.306-9.729-1.482-9.729-1.482s-12.482 1.11-19.514 2.814c-7.031 1.704-8.611 4.004-8.611 4.004l-3.812 5.14-7.299 5.954-45.903 31.333s-5.069 3.97-6.277 7.487c-1.209 3.517 3.315 10.263 3.315 10.263s4.198 7.012 9.509 8.872c5.311 1.86 14.812-7.522 23.12-14.332l26.137-25.796s.624-1.335 2.538-2.305c1.915-.97 2.391-.66 4.868-2.008 2.476-1.347 5.038-3.38 5.038-3.38s2.524-3.864 9.839-8.26c7.315-4.395 19.422-9.322 19.422-9.322s3.45-3.049 3.153-5.24Z"/>
    <path fill="#FFA8A7" d="M166.72 100.624c-4.757 2.269-5.392 4.116-3.801 7.684 1.59 3.568 5.556 8.34 5.556 8.34l24.519 22.698 26.391 22.656s3.108 2.21 5.062 5.174c1.953 2.963 3.049 6.367 3.049 6.367s6.594 2.754 11.045-5.133c4.451-7.887 2.713-14.555 2.634-15.781-.08-1.226-3.483-15.835-7.43-19.435-3.946-3.6-36.147-28.858-36.147-28.858s-8.49-4.959-17.361-5.449c-8.871-.49-8.76-.532-13.517 1.737Z"/>
    <path fill="#455A64" d="m339.857 208.546.036.003-1.811-1.562v.025c-.409-.328-1.044-.432-1.862-.209l-19.624 5.337c-1.819.494-3.793 2.339-4.409 4.121l-14.123 40.741c-.326.946-.196 1.672.26 2.082l-.015.005 1.868 1.61v-.024c.408.339 1.049.448 1.88.222l19.623-5.337c1.818-.495 3.793-2.339 4.409-4.12 2.775-8.008 11.35-32.737 14.123-40.743.347-1.005.175-1.759-.355-2.151Z"/>
    <path fill="#2F4189" d="m299.873 258.569 14.121-40.743c.616-1.781 2.591-3.626 4.409-4.121l19.623-5.336c1.819-.495 2.793.548 2.177 2.329-2.773 8.008-11.348 32.735-14.121 40.742-.618 1.781-2.593 3.627-4.411 4.122l-19.623 5.336c-1.819.495-2.792-.548-2.175-2.329Z"/>
    <path fill="#37474F" d="M316.277 214.837c-1.023.807-1.9 1.918-2.276 2.994l-14.128 40.729c-.305.914-.214 1.631.197 2.044l-1.757-1.505.019-.019c-.467-.412-.592-1.129-.269-2.079l14.126-40.747c.34-1.004 1.147-2.027 2.099-2.833l1.989 1.416Z"/>
    <path fill="#F28F8F" d="M334.462 227.113c-1.384 4.151-6.316 6.92-14.421 8.839-8.105 1.921-12.595 10.528-11.284 13.147 1.308 2.619 14.405 5.052 19.644 4.303 5.239-.748 10.509-8.321 12.094-10.665 1.587-2.343 3.434-18.709 1.751-20.954-1.685-2.245-5.222-1.9-5.222-1.9l-2.562 7.23Z"/>
    <path fill="#292929" stroke="#000" stroke-linejoin="round" stroke-width=".007" d="m459.259 278.398-.699-1.233-2.066 1.233.015-2.304h-1.353l.015 2.282-2.051-1.211-.714 1.233 2.052 1.123-2.052 1.122.714 1.211 2.051-1.189-.015 2.282h1.353l-.015-2.304 2.066 1.211.699-1.211-2.037-1.122 2.037-1.123Zm14.101-8.175-.698-1.234-2.066 1.234.014-2.304h-1.352l.015 2.282-2.052-1.212-.713 1.234 2.051 1.122-2.051 1.122.713 1.212 2.052-1.189-.015 2.281h1.352l-.014-2.304 2.066 1.212.698-1.212-2.036-1.122 2.036-1.122Zm14.891-8.176-.699-1.233-2.066 1.233.015-2.304h-1.353l.015 2.282-2.051-1.211-.714 1.233 2.052 1.123-2.052 1.122.714 1.211 2.051-1.189-.015 2.282h1.353l-.015-2.304 2.066 1.211.699-1.211-2.036-1.122 2.036-1.123Z"/>
    <path fill="#292929" stroke="#000" stroke-linejoin="round" stroke-width=".007" d="m504.774 252.571-.698-1.234-2.066 1.234.015-2.304h-1.353l.015 2.282-2.052-1.212-.713 1.234 2.051 1.122-2.051 1.123.713 1.211 2.052-1.189-.015 2.282h1.353l-.015-2.304 2.066 1.211.698-1.211-2.036-1.123 2.036-1.122Z" opacity=".397"/>
  </g>
</svg>
