<svg xmlns="http://www.w3.org/2000/svg" width="564" height="384" fill="none" viewBox="0 0 564 384">
  <mask id="a" width="508" height="346" x="27" y="31" maskUnits="userSpaceOnUse" style="mask-type:luminance">
    <path fill="#fff" d="M27.89 31.86h506.841v345.032H27.891V31.86Z"/>
  </mask>
  <g mask="url(#a)">
    <path fill="#B3C3C6" d="M37.4 159.164c5.254 0 9.52 4.266 9.52 9.519s-4.266 9.518-9.52 9.518c-5.252 0-9.517-4.265-9.517-9.518 0-5.253 4.265-9.519 9.518-9.519Zm437.845 76.146c5.253 0 9.518 4.265 9.518 9.518 0 5.253-4.265 9.518-9.518 9.518-5.253 0-9.518-4.265-9.518-9.518 0-5.253 4.265-9.518 9.518-9.518Z"/>
    <path stroke="#B3C1C6" stroke-width="2.38" d="M391.963 33.05c5.254 0 9.519 4.264 9.519 9.517 0 5.253-4.265 9.518-9.519 9.518-5.253 0-9.518-4.265-9.518-9.518 0-5.253 4.265-9.518 9.518-9.518Z"/>
  </g>
  <mask id="b" width="507" height="346" x="28" y="31" maskUnits="userSpaceOnUse" style="mask-type:luminance">
    <path fill="#fff" d="M28.164 31.596h506.839v345.031H28.164V31.597Z"/>
  </mask>
  <g mask="url(#b)">
    <path stroke="#B3C1C6" stroke-width="2.38" d="M111.449 56.581c7.88 0 14.277 6.398 14.277 14.277 0 7.88-6.397 14.277-14.277 14.277-7.88 0-14.277-6.397-14.277-14.277 0-7.88 6.397-14.277 14.277-14.277Z"/>
    <path fill="#FF7346" d="M66.231 254.082v21.416h-2.38v-21.416h2.38Zm8.329 9.518v2.379H55.523V263.6H74.56Zm441.687-110.239 19.472 8.916-.991 2.163-19.472-8.915.991-2.164Zm12.121-3.61 2.164.991-7.925 17.308-2.164-.991 7.925-17.308ZM276.817 53.012v21.415h-2.379V53.012h2.379Zm8.329 9.518v2.38h-19.037v-2.38h19.037Z"/>
  </g>
  <mask id="c" width="564" height="384" x="0" y="0" maskUnits="userSpaceOnUse" style="mask-type:luminance">
    <path fill="#fff" d="M0 0h563.156v383.369H0V0Z"/>
  </mask>
  <g mask="url(#c)">
    <mask id="d" width="564" height="384" x="0" y="0" maskUnits="userSpaceOnUse" style="mask-type:luminance">
      <path fill="#fff" d="M0 0h563.156v383.369H0V0Z"/>
    </mask>
    <g mask="url(#d)">
      <path fill="#DC2D2A" d="M298.247 224.023a2.644 2.644 0 0 1 3.74 0l27.685 27.685a2.645 2.645 0 0 1 0 3.739l-19.112 19.112a2.643 2.643 0 0 1-3.739 0l-27.686-27.685a2.645 2.645 0 0 1 0-3.739l19.112-19.112Z" opacity=".5"/>
      <path fill="#DC2D2A" d="m348.524 254.858 50.951 50.951c5.159 5.159 5.159 13.537 0 18.696l-20.652 20.652c-5.159 5.159-13.537 5.159-18.696 0l-50.951-50.951c-5.159-5.159-5.159-13.536 0-18.695l20.653-20.653c5.159-5.159 13.536-5.159 18.695 0Zm-35.426-7.255c32.701-32.878 32.667-86.207-.058-119.121-32.724-32.913-85.766-32.93-118.453-.053-32.701 32.878-32.68 86.209.056 119.107 32.724 32.914 85.754 32.945 118.455.067Z" opacity=".5"/>
      <path fill="#E32131" d="M204.548 141.231c25.794-25.793 67.698-25.773 93.517.046 25.818 25.818 25.839 67.723.045 93.516-25.793 25.794-67.698 25.773-93.517-.045-25.818-25.819-25.838-67.723-.045-93.517Z"/>
    </g>
    <path fill="#fff" d="M232.063 170.024c3.243 0 5.876 5.018 5.876 11.198 0 6.181-2.633 11.198-5.876 11.198-3.243 0-5.875-5.017-5.875-11.198 0-6.18 2.632-11.198 5.875-11.198Zm37.07 0c3.243 0 5.876 5.018 5.876 11.198 0 6.181-2.633 11.198-5.876 11.198-3.242 0-5.875-5.017-5.875-11.198 0-6.18 2.633-11.198 5.875-11.198Z" opacity=".92"/>
    <path fill="url(#e)" d="M318.523 188.492c7.995 0 14.477-7.787 14.477-17.397 0-9.611-14.477-32.838-14.477-32.838s-14.476 23.227-14.476 32.838c0 9.61 6.482 17.397 14.476 17.397Z"/>
    <path fill="#fff" d="M266.064 219.976c-18.079-9.039-32.571 1.037-30.19.521 10.41-2.256 30.884-.174 30.19-.521Z"/>
  </g>
  <path fill="#DC2D2A" d="M277.684 345.693c14.292 0 25.896 1.964 25.896 4.383s-11.604 4.383-25.896 4.383c-14.291 0-25.895-1.964-25.895-4.383s11.604-4.383 25.895-4.383Z"/>
  <defs>
    <linearGradient id="e" x1="318.539" x2="337.049" y1="151.165" y2="182.373" gradientUnits="userSpaceOnUse">
      <stop stop-color="#B0F9FF"/>
      <stop offset=".5" stop-color="#B6F3FE"/>
      <stop offset="1" stop-color="#BCEEFD"/>
    </linearGradient>
  </defs>
</svg>
