<svg xmlns="http://www.w3.org/2000/svg" width="564" height="384" fill="none" viewBox="0 0 564 384">
  <g clip-path="url(#a)">
    <g clip-path="url(#b)">
      <mask id="c" width="564" height="384" x="16" y="0" maskUnits="userSpaceOnUse" style="mask-type:luminance">
        <path fill="#fff" d="M579.156 0H16v383.369h563.156V0Z"/>
      </mask>
      <g mask="url(#c)">
        <mask id="d" width="508" height="346" x="43" y="38" maskUnits="userSpaceOnUse" style="mask-type:luminance">
          <path fill="#fff" d="M43.89 38.47h506.841v345.032H43.891V38.469Z"/>
        </mask>
        <g mask="url(#d)">
          <path fill="#B3C3C6" d="M53.4 165.774c5.254 0 9.52 4.265 9.52 9.519 0 5.253-4.266 9.518-9.52 9.518-5.252 0-9.517-4.265-9.517-9.518 0-5.254 4.265-9.519 9.518-9.519Zm437.845 76.145c5.253 0 9.518 4.266 9.518 9.519s-4.265 9.518-9.518 9.518c-5.253 0-9.518-4.265-9.518-9.518 0-5.253 4.265-9.519 9.518-9.519Z"/>
          <path stroke="#B3C1C6" stroke-width="2.38" d="M407.963 39.66c5.254 0 9.519 4.264 9.519 9.517 0 5.253-4.265 9.518-9.519 9.518-5.253 0-9.518-4.265-9.518-9.518 0-5.253 4.265-9.518 9.518-9.518Z"/>
        </g>
        <mask id="e" width="507" height="346" x="44" y="38" maskUnits="userSpaceOnUse" style="mask-type:luminance">
          <path fill="#fff" d="M44.164 38.206h506.839v345.031H44.164V38.207Z"/>
        </mask>
        <g mask="url(#e)">
          <path stroke="#B3C1C6" stroke-width="2.38" d="M127.449 63.191c7.88 0 14.277 6.398 14.277 14.277 0 7.88-6.397 14.277-14.277 14.277-7.88 0-14.277-6.397-14.277-14.277 0-7.88 6.397-14.277 14.277-14.277Z"/>
          <path fill="#FF8760" d="M82.231 260.692v21.415h-2.38v-21.415h2.38Zm8.329 9.518v2.379H71.523v-2.379H90.56Zm441.687-110.239 19.472 8.916-.991 2.163-19.472-8.916.991-2.163Zm12.121-3.61 2.164.991-7.925 17.308-2.164-.991 7.925-17.308ZM292.817 59.622v21.415h-2.379V59.622h2.379Zm8.329 9.518v2.38h-19.037v-2.38h19.037Z"/>
        </g>
        <mask id="f" width="564" height="384" x="16" y="6" maskUnits="userSpaceOnUse" style="mask-type:luminance">
          <path fill="#fff" d="M16 6.61h563.156v383.369H16V6.609Z"/>
        </mask>
        <g mask="url(#f)">
          <mask id="g" width="564" height="384" x="16" y="6" maskUnits="userSpaceOnUse" style="mask-type:luminance">
            <path fill="#fff" d="M16 6.61h563.156v383.369H16V6.609Z"/>
          </mask>
          <g mask="url(#g)">
            <path fill="#FF8760" d="M314.247 230.632a2.646 2.646 0 0 1 3.74 0l27.685 27.686a2.645 2.645 0 0 1 0 3.739l-19.112 19.112a2.643 2.643 0 0 1-3.739 0l-27.686-27.685a2.645 2.645 0 0 1 0-3.739l19.112-19.113Z" opacity=".5"/>
            <path fill="#FF8760" d="m364.524 261.468 50.951 50.951c5.159 5.159 5.159 13.537 0 18.695l-20.652 20.653c-5.159 5.159-13.537 5.159-18.696 0l-50.951-50.951c-5.159-5.159-5.159-13.537 0-18.696l20.653-20.652c5.159-5.159 13.536-5.159 18.695 0Zm-35.426-7.255c32.701-32.878 32.667-86.207-.058-119.121-32.724-32.913-85.766-32.93-118.453-.053-32.701 32.878-32.68 86.208.056 119.107 32.724 32.914 85.754 32.945 118.455.067Z" opacity=".5"/>
            <path fill="#FF8760" d="M220.548 147.841c25.794-25.793 67.698-25.773 93.517.045 25.818 25.819 25.839 67.724.045 93.517-25.793 25.794-67.698 25.773-93.517-.045-25.818-25.819-25.838-67.723-.045-93.517Z"/>
          </g>
          <path fill="#000" d="M248.063 176.634c3.243 0 5.876 5.018 5.876 11.198 0 6.18-2.633 11.198-5.876 11.198-3.243 0-5.875-5.018-5.875-11.198 0-6.18 2.632-11.198 5.875-11.198Z" opacity=".92"/>
          <path fill="#0E0E0E" d="M285.133 176.634c3.243 0 5.876 5.018 5.876 11.198 0 6.18-2.633 11.198-5.876 11.198-3.242 0-5.875-5.018-5.875-11.198 0-6.18 2.633-11.198 5.875-11.198Z" opacity=".92"/>
          <path fill="url(#h)" d="M336.023 195.102c8.823 0 15.977-7.787 15.977-17.397 0-9.611-15.977-32.838-15.977-32.838s-15.976 23.227-15.976 32.838c0 9.61 7.154 17.397 15.976 17.397Z"/>
          <path fill="#000" d="M283.447 230.781c-18.079-9.039-32.571 1.036-30.19.52 10.41-2.255 30.884-.173 30.19-.52Z"/>
        </g>
        <path fill="#FF8760" d="M276.684 352.302c14.292 0 25.896 1.964 25.896 4.383s-11.604 4.383-25.896 4.383c-14.291 0-25.895-1.964-25.895-4.383s11.604-4.383 25.895-4.383Z"/>
      </g>
    </g>
  </g>
  <defs>
    <clipPath id="a">
      <path fill="#fff" d="M0 0h563.156v383.369H0z"/>
    </clipPath>
    <clipPath id="b">
      <path fill="#fff" d="M16 0h563.156v383.369H16z"/>
    </clipPath>
    <linearGradient id="h" x1="336.04" x2="353.632" y1="157.775" y2="190.507" gradientUnits="userSpaceOnUse">
      <stop stop-color="#B0F9FF"/>
      <stop offset=".5" stop-color="#B6F3FE"/>
      <stop offset="1" stop-color="#BCEEFD"/>
    </linearGradient>
  </defs>
</svg>
