<svg xmlns="http://www.w3.org/2000/svg" width="317" height="352" fill="none" viewBox="0 0 317 352">
  <path fill="#FF7346" fill-rule="evenodd" d="M7.457 54.672C.836 64.106.836 92.147.836 148.23v27.618c0 98.887 74.347 146.875 120.994 167.251 12.654 5.528 18.981 8.292 36.858 8.292 17.876 0 24.203-2.764 36.857-8.292 46.647-20.376 120.994-68.364 120.994-167.251V148.23c0-56.083 0-84.124-6.621-93.558-6.621-9.434-32.988-18.46-85.721-36.51l-10.046-3.439C186.663 5.314 172.918.61 158.688.61c-14.231 0-27.976 4.705-55.464 14.114l-10.047 3.44c-52.732 18.05-79.099 27.075-85.72 36.509Zm177.539 173.945c0 9.687-7.852 17.539-17.539 17.539h-17.539c-9.687 0-17.539-7.852-17.539-17.539v-24.578c-15.727-9.098-26.309-26.102-26.309-45.578 0-29.06 23.558-52.617 52.618-52.617 29.059 0 52.617 23.557 52.617 52.617 0 19.476-10.582 36.48-26.309 45.578v24.578Z" clip-rule="evenodd"/>
</svg>
